#N canvas 2 22 1280 752 10;
#X declare -lib bsaylor;
#X declare -lib bsaylor;
#X declare -lib bsaylor;
#N canvas 0 22 450 278 (subpatch) 0;
#X array square 100 float 1;
#A 0 0 0 0 0 0 0 0 0 0 0 0 0 0 0 0 0 0 0 0 0 0 0 0 0 0 0 0 0 0 0 0
0 0 0 0 0 0 0 0 0 0 0 0 0 0 0 0 0 0 0 0 0 0 0 0 0 0 0 0 0 0 0 0 0 0
0 0 0 0 0 0 0 0 0 0 0 0 0 0 0 0 0 0 0 0 0 0 0 0 0 0 0 0 0 0 0 0 0 0
0;
#X coords 0 1 99 -1 200 140 1 0 0;
#X restore -188 180 graph;
#N canvas 0 22 450 278 (subpatch) 0;
#X array phasor 100 float 1;
#A 0 0 0 0 0 0 0 0 0 0 0 0 0 0 0 0 0 0 0 0 0 0 0 0 0 0 0 0 0 0 0 0
0 0 0 0 0 0 0 0 0 0 0 0 0 0 0 0 0 0 0 0 0 0 0 0 0 0 0 0 0 0 0 0 0 0
0 0 0 0 0 0 0 0 0 0 0 0 0 0 0 0 0 0 0 0 0 0 0 0 0 0 0 0 0 0 0 0 0 0
0;
#X coords 0 1 99 -1 200 140 1 0 0;
#X restore -187 336 graph;
#N canvas 0 22 450 278 (subpatch) 0;
#X array sumatoria 100 float 1;
#A 0 0 0 0 0 0 0 0 0 0 0 0 0 0 0 0 0 0 0 0 0 0 0 0 0 0 0 0 0 0 0 0
0 0 0 0 0 0 0 0 0 0 0 0 0 0 0 0 0 0 0 0 0 0 0 0 0 0 0 0 0 0 0 0 0 0
0 0 0 0 0 0 0 0 0 0 0 0 0 0 0 0 0 0 0 0 0 0 0 0 0 0 0 0 0 0 0 0 0 0
0;
#X coords 0 1 99 -1 200 140 1 0 0;
#X restore -187 491 graph;
#X obj 74 320 *~;
#X msg 307 356 bang;
#X obj 307 334 metro 100;
#X msg 307 314 bang;
#X obj 242 383 tabwrite~ sumatoria;
#X obj 74 355 dac~;
#N canvas 0 22 450 278 (subpatch) 0;
#X array sin 100 float 1;
#A 0 0 0 0 0 0 0 0 0 0 0 0 0 0 0 0 0 0 0 0 0 0 0 0 0 0 0 0 0 0 0 0
0 0 0 0 0 0 0 0 0 0 0 0 0 0 0 0 0 0 0 0 0 0 0 0 0 0 0 0 0 0 0 0 0 0
0 0 0 0 0 0 0 0 0 0 0 0 0 0 0 0 0 0 0 0 0 0 0 0 0 0 0 0 0 0 0 0 0 0
0;
#X coords 0 1 99 -1 200 140 1;
#X restore -185 18 graph;
#X floatatom 76 25 3 0 0 0 - - -;
#X obj 76 -1 keyname;
#X symbolatom 120 26 10 0 0 0 - - -;
#X msg 120 44 set \$1;
#X obj 74 77 == 1;
#X msg 74 96 bang;
#X symbolatom 74 121 10 0 0 0 - - -;
#X obj 219 285 knob 32 32 0 1 0 0 empty empty Master 0 -8 0 12 -262144
-196416 -1 3100 1;
#N canvas 2 22 1280 752 sintetizador 0;
#X obj 331 564 *~;
#X msg 295 171 bang;
#X text 329 171 D0;
#X msg 349 172 bang;
#X msg 349 193 73;
#X text 383 172 D0#;
#X msg 295 192 72;
#X msg 409 172 bang;
#X msg 463 173 bang;
#X text 443 172 RE;
#X msg 524 172 bang;
#X msg 578 173 bang;
#X msg 638 173 bang;
#X msg 699 174 bang;
#X text 497 173 RE#;
#X text 558 172 MI;
#X text 612 173 FA;
#X text 672 173 FA#;
#X text 733 174 SOL;
#X msg 758 173 bang;
#X msg 829 174 bang;
#X msg 889 174 bang;
#X msg 950 175 bang;
#X text 792 173 SOL#;
#X text 863 174 LA;
#X text 923 174 LA#;
#X text 984 175 SI;
#X msg 409 193 74;
#X msg 463 194 75;
#X msg 524 193 76;
#X msg 578 194 77;
#X msg 638 194 78;
#X msg 699 195 79;
#X msg 758 194 80;
#X msg 829 195 81;
#X msg 889 195 82;
#X msg 950 196 83;
#X obj 530 56 sel a w s e d f t g y h u j k;
#X obj 506 419 knob 32 32 10 2000 0 0 empty empty ATK 0 -10 0 15 -262144
-109103 -1 0 1;
#X obj 543 418 knob 32 32 10 2000 0 0 empty empty DEC 0 -10 0 15 -262144
-109103 -1 1500 1;
#X obj 579 418 knob 32 32 0 1 0 0 empty empty SUS 0 -10 0 15 -262144
-109103 -1 0 1;
#X obj 616 418 knob 32 32 10 2000 0 0 empty empty REL 0 -10 0 15 -262144
-109103 -1 0 1;
#X floatatom 506 454 5 0 0 0 - - -;
#X floatatom 543 454 5 0 0 0 - - -;
#X floatatom 579 454 5 0 0 0 - - -;
#X floatatom 616 454 5 0 0 0 - - -;
#X msg 410 471 1;
#X msg 452 471 0;
#X obj 474 547 aenv~ 100 200 0.6 500;
#X obj 410 376 bng 15 250 50 0 empty empty empty 0 -6 0 8 -262144 -1
-1;
#X text 429 373 <- click here;
#X obj 422 426 del 800;
#X obj 331 381 mtof~;
#X obj 331 403 osc~;
#X obj 331 425 *~;
#X msg 204 554 bang;
#X obj 204 532 metro 100;
#X msg 204 512 bang;
#X obj 204 489 loadbang;
#X obj 204 581 tabwrite~ sin;
#X obj 659 416 knob 32 32 0 1 0 0 empty empty Volumen 0 -8 0 12 -262144
-196416 -1 2200 1;
#X obj 298 252 hsl 60 15 0 127 0 0 empty empty Frecuencia 70 4 0 10
-262144 -1 -1 3345 1;
#X obj 530 21 inlet;
#X obj 331 337 +;
#X obj 331 315 t b f;
#X obj 331 293 * 12;
#X obj 331 273 i \$2;
#X floatatom 655 455 5 0 10 1 TRANS - -;
#X obj 16 16 import bsaylor;
#X msg 657 515 loga;
#X obj 331 590 outlet~;
#X text 673 384 OSC SIN;
#X text 573 24 teclado compu;
#X floatatom 331 360 5 0 0 0 - - -;
#X msg 1005 175 bang;
#X text 1039 175 DO;
#X msg 1005 196 84;
#X obj 657 491 loadbang;
#X connect 0 0 59 0;
#X connect 0 0 70 0;
#X connect 1 0 6 0;
#X connect 1 0 49 0;
#X connect 3 0 4 0;
#X connect 3 0 49 0;
#X connect 4 0 61 0;
#X connect 6 0 61 0;
#X connect 7 0 27 0;
#X connect 7 0 49 0;
#X connect 8 0 28 0;
#X connect 8 0 49 0;
#X connect 10 0 29 0;
#X connect 10 0 49 0;
#X connect 11 0 30 0;
#X connect 11 0 49 0;
#X connect 12 0 31 0;
#X connect 12 0 49 0;
#X connect 13 0 32 0;
#X connect 13 0 49 0;
#X connect 19 0 33 0;
#X connect 19 0 49 0;
#X connect 20 0 34 0;
#X connect 20 0 49 0;
#X connect 21 0 35 0;
#X connect 21 0 49 0;
#X connect 22 0 36 0;
#X connect 22 0 49 0;
#X connect 27 0 61 0;
#X connect 28 0 61 0;
#X connect 29 0 61 0;
#X connect 30 0 61 0;
#X connect 31 0 61 0;
#X connect 32 0 61 0;
#X connect 33 0 61 0;
#X connect 34 0 61 0;
#X connect 35 0 61 0;
#X connect 36 0 61 0;
#X connect 37 0 1 0;
#X connect 37 1 3 0;
#X connect 37 2 7 0;
#X connect 37 3 8 0;
#X connect 37 4 10 0;
#X connect 37 5 11 0;
#X connect 37 6 12 0;
#X connect 37 7 13 0;
#X connect 37 8 19 0;
#X connect 37 9 20 0;
#X connect 37 10 21 0;
#X connect 37 11 22 0;
#X connect 37 12 74 0;
#X connect 38 0 42 0;
#X connect 39 0 43 0;
#X connect 40 0 44 0;
#X connect 41 0 45 0;
#X connect 42 0 48 1;
#X connect 43 0 48 2;
#X connect 44 0 48 3;
#X connect 45 0 48 4;
#X connect 46 0 48 0;
#X connect 47 0 48 0;
#X connect 48 0 0 1;
#X connect 49 0 46 0;
#X connect 49 0 51 0;
#X connect 51 0 47 0;
#X connect 52 0 53 0;
#X connect 53 0 54 0;
#X connect 54 0 0 0;
#X connect 55 0 59 0;
#X connect 56 0 55 0;
#X connect 57 0 56 0;
#X connect 58 0 57 0;
#X connect 60 0 54 1;
#X connect 61 0 63 0;
#X connect 62 0 37 0;
#X connect 63 0 73 0;
#X connect 64 0 63 0;
#X connect 64 1 63 1;
#X connect 65 0 64 0;
#X connect 66 0 65 0;
#X connect 67 0 66 0;
#X connect 69 0 48 0;
#X connect 73 0 52 0;
#X connect 74 0 76 0;
#X connect 74 0 49 0;
#X connect 76 0 61 0;
#X connect 77 0 69 0;
#X coords 0 -1 1 1 220 80 2 500 400;
#X restore 74 157 pd sintetizador;
#N canvas 2 22 1280 752 sintetizador 0;
#X obj 331 564 *~;
#X msg 295 171 bang;
#X text 329 171 D0;
#X msg 349 172 bang;
#X msg 349 193 73;
#X text 383 172 D0#;
#X msg 295 192 72;
#X msg 409 172 bang;
#X msg 463 173 bang;
#X text 443 172 RE;
#X msg 524 172 bang;
#X msg 578 173 bang;
#X msg 638 173 bang;
#X msg 699 174 bang;
#X text 497 173 RE#;
#X text 558 172 MI;
#X text 612 173 FA;
#X text 672 173 FA#;
#X text 733 174 SOL;
#X msg 758 173 bang;
#X msg 829 174 bang;
#X msg 889 174 bang;
#X msg 950 175 bang;
#X text 792 173 SOL#;
#X text 863 174 LA;
#X text 923 174 LA#;
#X text 984 175 SI;
#X msg 409 193 74;
#X msg 463 194 75;
#X msg 524 193 76;
#X msg 578 194 77;
#X msg 638 194 78;
#X msg 699 195 79;
#X msg 758 194 80;
#X msg 829 195 81;
#X msg 889 195 82;
#X msg 950 196 83;
#X obj 530 56 sel a w s e d f t g y h u j k;
#X obj 506 419 knob 32 32 10 2000 0 0 empty empty ATK 0 -10 0 15 -262144
-109103 -1 0 1;
#X obj 543 418 knob 32 32 10 2000 0 0 empty empty DEC 0 -10 0 15 -262144
-109103 -1 2000 1;
#X obj 579 418 knob 32 32 0 1 0 0 empty empty SUS 0 -10 0 15 -262144
-109103 -1 800 1;
#X obj 616 418 knob 32 32 10 2000 0 0 empty empty REL 0 -10 0 15 -262144
-109103 -1 2500 1;
#X floatatom 506 454 5 0 0 0 - - -;
#X floatatom 543 454 5 0 0 0 - - -;
#X floatatom 579 454 5 0 0 0 - - -;
#X floatatom 616 454 5 0 0 0 - - -;
#X msg 410 471 1;
#X msg 452 471 0;
#X obj 474 547 aenv~ 100 200 0.6 500;
#X obj 410 376 bng 15 250 50 0 empty empty empty 0 -6 0 8 -262144 -1
-1;
#X text 429 373 <- click here;
#X obj 422 426 del 800;
#X obj 331 381 mtof~;
#X obj 331 425 *~;
#X msg 204 554 bang;
#X obj 204 532 metro 100;
#X msg 204 512 bang;
#X obj 204 489 loadbang;
#X obj 659 416 knob 32 32 0 1 0 0 empty empty Volumen 0 -8 0 12 -262144
-196416 -1 0 1;
#X obj 298 252 hsl 60 15 0 127 0 0 empty empty Frecuencia 70 4 0 10
-262144 -1 -1 3345 1;
#X obj 530 21 inlet;
#X obj 331 337 +;
#X obj 331 315 t b f;
#X obj 331 293 * 12;
#X obj 331 273 i \$2;
#X floatatom 655 455 5 -5 10 1 TRANS - -;
#X obj 16 16 import bsaylor;
#X msg 657 515 loga;
#X obj 331 590 outlet~;
#X text 573 24 teclado compu;
#X floatatom 331 360 5 0 0 0 - - -;
#X msg 1005 175 bang;
#X text 1039 175 DO;
#X msg 1005 196 84;
#X obj 657 491 loadbang;
#X obj 331 403 phasor~;
#X obj 204 581 tabwrite~ phasor;
#X text 673 384 OSC PHASOR;
#X connect 0 0 68 0;
#X connect 0 0 76 0;
#X connect 1 0 6 0;
#X connect 1 0 49 0;
#X connect 3 0 4 0;
#X connect 3 0 49 0;
#X connect 4 0 59 0;
#X connect 6 0 59 0;
#X connect 7 0 27 0;
#X connect 7 0 49 0;
#X connect 8 0 28 0;
#X connect 8 0 49 0;
#X connect 10 0 29 0;
#X connect 10 0 49 0;
#X connect 11 0 30 0;
#X connect 11 0 49 0;
#X connect 12 0 31 0;
#X connect 12 0 49 0;
#X connect 13 0 32 0;
#X connect 13 0 49 0;
#X connect 19 0 33 0;
#X connect 19 0 49 0;
#X connect 20 0 34 0;
#X connect 20 0 49 0;
#X connect 21 0 35 0;
#X connect 21 0 49 0;
#X connect 22 0 36 0;
#X connect 22 0 49 0;
#X connect 27 0 59 0;
#X connect 28 0 59 0;
#X connect 29 0 59 0;
#X connect 30 0 59 0;
#X connect 31 0 59 0;
#X connect 32 0 59 0;
#X connect 33 0 59 0;
#X connect 34 0 59 0;
#X connect 35 0 59 0;
#X connect 36 0 59 0;
#X connect 37 0 1 0;
#X connect 37 1 3 0;
#X connect 37 2 7 0;
#X connect 37 3 8 0;
#X connect 37 4 10 0;
#X connect 37 5 11 0;
#X connect 37 6 12 0;
#X connect 37 7 13 0;
#X connect 37 8 19 0;
#X connect 37 9 20 0;
#X connect 37 10 21 0;
#X connect 37 11 22 0;
#X connect 37 12 71 0;
#X connect 38 0 42 0;
#X connect 39 0 43 0;
#X connect 40 0 44 0;
#X connect 41 0 45 0;
#X connect 42 0 48 1;
#X connect 43 0 48 2;
#X connect 44 0 48 3;
#X connect 45 0 48 4;
#X connect 46 0 48 0;
#X connect 47 0 48 0;
#X connect 48 0 0 1;
#X connect 49 0 46 0;
#X connect 49 0 51 0;
#X connect 51 0 47 0;
#X connect 52 0 75 0;
#X connect 53 0 0 0;
#X connect 54 0 76 0;
#X connect 55 0 54 0;
#X connect 56 0 55 0;
#X connect 57 0 56 0;
#X connect 58 0 53 1;
#X connect 59 0 61 0;
#X connect 60 0 37 0;
#X connect 61 0 70 0;
#X connect 62 0 61 0;
#X connect 62 1 61 1;
#X connect 63 0 62 0;
#X connect 64 0 63 0;
#X connect 65 0 64 0;
#X connect 67 0 48 0;
#X connect 70 0 52 0;
#X connect 71 0 73 0;
#X connect 71 0 49 0;
#X connect 73 0 59 0;
#X connect 74 0 67 0;
#X connect 75 0 53 0;
#X coords 0 -1 1 1 220 80 2 500 400;
#X restore 325 137 pd sintetizador;
#N canvas 2 22 1280 752 sintetizador 0;
#X obj 361 535 *~;
#X msg 295 171 bang;
#X text 329 171 D0;
#X msg 349 172 bang;
#X msg 349 193 73;
#X text 383 172 D0#;
#X msg 295 192 72;
#X msg 409 172 bang;
#X msg 463 173 bang;
#X text 443 172 RE;
#X msg 524 172 bang;
#X msg 578 173 bang;
#X msg 638 173 bang;
#X msg 699 174 bang;
#X text 497 173 RE#;
#X text 558 172 MI;
#X text 612 173 FA;
#X text 672 173 FA#;
#X text 733 174 SOL;
#X msg 758 173 bang;
#X msg 829 174 bang;
#X msg 889 174 bang;
#X msg 950 175 bang;
#X text 792 173 SOL#;
#X text 863 174 LA;
#X text 923 174 LA#;
#X text 984 175 SI;
#X msg 409 193 74;
#X msg 463 194 75;
#X msg 524 193 76;
#X msg 578 194 77;
#X msg 638 194 78;
#X msg 699 195 79;
#X msg 758 194 80;
#X msg 829 195 81;
#X msg 889 195 82;
#X msg 950 196 83;
#X obj 530 56 sel a w s e d f t g y h u j k;
#X obj 506 419 knob 32 32 10 2000 0 0 empty empty ATK 0 -10 0 15 -262144
-109103 -1 0 1;
#X obj 543 418 knob 32 32 10 2000 0 0 empty empty DEC 0 -10 0 15 -262144
-109103 -1 400 1;
#X obj 579 418 knob 32 32 0 1 0 0 empty empty SUS 0 -10 0 15 -262144
-109103 -1 0 1;
#X obj 616 418 knob 32 32 10 2000 0 0 empty empty REL 0 -10 0 15 -262144
-109103 -1 0 1;
#X floatatom 506 454 5 0 0 0 - - -;
#X floatatom 543 454 5 0 0 0 - - -;
#X floatatom 579 454 5 0 0 0 - - -;
#X floatatom 616 454 5 0 0 0 - - -;
#X msg 410 471 1;
#X msg 452 471 0;
#X obj 474 547 aenv~ 100 200 0.6 500;
#X obj 410 376 bng 15 250 50 0 empty empty empty 0 -6 0 8 -262144 -1
-1;
#X text 429 373 <- click here;
#X obj 422 426 del 800;
#X obj 331 381 mtof~;
#X obj 361 506 *~;
#X obj 659 416 knob 32 32 0 1 0 0 empty empty Volumen 0 -8 0 12 -262144
-196416 -1 3100 1;
#X obj 298 252 hsl 60 15 0 127 0 0 empty empty Frecuencia 70 4 0 10
-262144 -1 -1 3345 1;
#X obj 530 21 inlet;
#X obj 331 337 +;
#X obj 331 315 t b f;
#X obj 331 293 * 12;
#X obj 331 273 i \$2;
#X floatatom 655 455 5 -5 10 1 TRANS - -;
#X obj 16 16 import bsaylor;
#X msg 657 515 loga;
#X obj 361 561 outlet~;
#X text 573 24 teclado compu;
#X floatatom 331 360 5 0 0 0 - - -;
#X msg 1005 175 bang;
#X text 1039 175 DO;
#X msg 1005 196 84;
#X obj 657 491 loadbang;
#X text 673 384 OSC PHASOR;
#X obj 226 412 osc~;
#X msg 119 525 bang;
#X obj 119 503 metro 100;
#X msg 119 483 bang;
#X obj 119 552 tabwrite~ square;
#X obj 119 459 loadbang;
#X obj 226 435 expr~ $v1 \; if ($v1 > 0.001 \, 1 \, -1);
#X connect 0 0 64 0;
#X connect 0 0 76 0;
#X connect 1 0 6 0;
#X connect 1 0 49 0;
#X connect 3 0 4 0;
#X connect 3 0 49 0;
#X connect 4 0 55 0;
#X connect 6 0 55 0;
#X connect 7 0 27 0;
#X connect 7 0 49 0;
#X connect 8 0 28 0;
#X connect 8 0 49 0;
#X connect 10 0 29 0;
#X connect 10 0 49 0;
#X connect 11 0 30 0;
#X connect 11 0 49 0;
#X connect 12 0 31 0;
#X connect 12 0 49 0;
#X connect 13 0 32 0;
#X connect 13 0 49 0;
#X connect 19 0 33 0;
#X connect 19 0 49 0;
#X connect 20 0 34 0;
#X connect 20 0 49 0;
#X connect 21 0 35 0;
#X connect 21 0 49 0;
#X connect 22 0 36 0;
#X connect 22 0 49 0;
#X connect 27 0 55 0;
#X connect 28 0 55 0;
#X connect 29 0 55 0;
#X connect 30 0 55 0;
#X connect 31 0 55 0;
#X connect 32 0 55 0;
#X connect 33 0 55 0;
#X connect 34 0 55 0;
#X connect 35 0 55 0;
#X connect 36 0 55 0;
#X connect 37 0 1 0;
#X connect 37 1 3 0;
#X connect 37 2 7 0;
#X connect 37 3 8 0;
#X connect 37 4 10 0;
#X connect 37 5 11 0;
#X connect 37 6 12 0;
#X connect 37 7 13 0;
#X connect 37 8 19 0;
#X connect 37 9 20 0;
#X connect 37 10 21 0;
#X connect 37 11 22 0;
#X connect 37 12 67 0;
#X connect 38 0 42 0;
#X connect 39 0 43 0;
#X connect 40 0 44 0;
#X connect 41 0 45 0;
#X connect 42 0 48 1;
#X connect 43 0 48 2;
#X connect 44 0 48 3;
#X connect 45 0 48 4;
#X connect 46 0 48 0;
#X connect 47 0 48 0;
#X connect 48 0 0 1;
#X connect 49 0 46 0;
#X connect 49 0 51 0;
#X connect 51 0 47 0;
#X connect 52 0 72 0;
#X connect 53 0 0 0;
#X connect 54 0 53 1;
#X connect 55 0 57 0;
#X connect 56 0 37 0;
#X connect 57 0 66 0;
#X connect 58 0 57 0;
#X connect 58 1 57 1;
#X connect 59 0 58 0;
#X connect 60 0 59 0;
#X connect 61 0 60 0;
#X connect 63 0 48 0;
#X connect 66 0 52 0;
#X connect 67 0 69 0;
#X connect 67 0 49 0;
#X connect 69 0 55 0;
#X connect 70 0 63 0;
#X connect 72 0 78 0;
#X connect 73 0 76 0;
#X connect 74 0 73 0;
#X connect 75 0 74 0;
#X connect 77 0 75 0;
#X connect 78 1 53 0;
#X coords 0 -1 1 1 220 80 2 500 400;
#X restore 556 137 pd sintetizador;
#X obj 307 293 loadbang;
#X connect 3 0 7 0;
#X connect 3 0 8 0;
#X connect 3 0 8 1;
#X connect 4 0 7 0;
#X connect 5 0 4 0;
#X connect 6 0 5 0;
#X connect 10 0 14 0;
#X connect 11 0 10 0;
#X connect 11 1 12 0;
#X connect 12 0 13 0;
#X connect 13 0 16 0;
#X connect 14 0 15 0;
#X connect 15 0 16 0;
#X connect 16 0 18 0;
#X connect 16 0 19 0;
#X connect 16 0 20 0;
#X connect 17 0 3 1;
#X connect 18 0 3 0;
#X connect 19 0 3 0;
#X connect 20 0 3 0;
#X connect 21 0 6 0;
