#N canvas 0 0 1366 686 10;
#X obj 533 49 inlet midi;
#X obj 219 677 outlet midi;
#X obj 894 73 int;
#X obj 533 73 unpack f f;
#X obj 894 4 inlet parameters;
#X obj 1023 73 int;
#X obj 1023 50 clip 0 1;
#X obj 1023 96 s \$0-seventh;
#X obj 828 695 table \$0-escala;
#X obj 953 576 f;
#X obj 979 576 + 1;
#X msg 953 492 0;
#X obj 848 620 tabwrite \$0-escala;
#X obj 953 598 - 1;
#X obj 913 492 + 0;
#X obj 886 492 + 2;
#X obj 859 492 + 4;
#X obj 833 492 + 5;
#X obj 806 492 + 7;
#X obj 779 492 + 9;
#X obj 748 492 + 11;
#X obj 533 156 spigot;
#X obj 566 132 != 0;
#X obj 894 119 s \$0-grado;
#X obj 894 27 route grado seventh;
#X obj 197 182 r \$0-grado;
#X obj 716 492 + 12;
#X obj 684 492 + 14;
#X obj 653 492 + 16;
#X obj 622 492 + 17;
#X obj 590 492 + 19;
#X obj 559 492 + 21;
#X obj 528 492 + 23;
#X obj 528 438 t f f f f f f f f f f f f f f b;
#X obj 848 525 clip 0 127;
#X obj 848 550 t f b;
#X obj 928 645 loadbang;
#X msg 928 694 \; \$1-escala resize 14;
#X obj 928 671 f \$0;
#X obj 283 452 + 0;
#X obj 251 452 + 2;
#X obj 219 452 + 4;
#X obj 188 452 + 6;
#X obj 157 452 + 7;
#X msg 142 191 bang;
#X obj 89 531 r \$0-seventh;
#X obj 35 550 mux 1 2;
#X obj 219 603 tabread \$0-escala;
#X obj 157 405 t f f f f f;
#X obj 219 647 pack f f;
#X obj 314 625 r \$0-velocity;
#X text 543 390 1 Cuando llega una nota con velocity !=0 \, calculamos
la escala mayor de esa nota y llenamos la tabla \$0-escala. (toca calcular
2 octavas + 1 nota);
#X text 12 135 2 Luego \, leer de la tabla las posiciones segun el
grado.;
#X obj 251 527 f;
#X obj 283 526 f;
#X obj 219 527 f;
#X obj 999 266 s \$0-reset;
#X msg 1016 221 0;
#X obj 925 214 t f b b b;
#X obj 974 297 r \$0-velocity;
#X obj 959 321 f;
#X obj 959 344 s \$0-velocity;
#X obj 1016 243 s \$0-velocity-reset;
#X obj 309 648 r \$0-velocity-reset;
#X obj 894 50 oss/denormalize 0 7;
#X obj 157 362 spigot;
#X obj 190 339 != 0;
#X obj 157 383 - 1;
#X obj 349 371 == 0;
#X obj 349 394 select 1;
#X obj 349 417 t b b b b;
#X text 302 324 4 If modo==0 \; output es [tonica 0]x4;
#X obj 173 580 f;
#X obj 925 174 r \$0-start-reset;
#X obj 533 183 t f b;
#X obj 157 240 t f b;
#X obj 204 263 s \$0-start-reset;
#X obj 142 216 f;
#X obj 894 96 change;
#X obj 157 498 r \$0-reset;
#X obj 603 107 s \$0-velocity;
#X obj 706 88 > 0;
#X obj 706 118 s \$0-pushed;
#X text 1025 160 3 El asunto de reset es para no dejar notas on en
caso de que llegue un noteon a la entrada sin que llegue antes un noteoff
;
#X connect 0 0 3 0;
#X connect 2 0 78 0;
#X connect 3 0 21 0;
#X connect 3 0 44 0;
#X connect 3 1 22 0;
#X connect 3 1 80 0;
#X connect 3 1 81 0;
#X connect 4 0 24 0;
#X connect 5 0 7 0;
#X connect 6 0 5 0;
#X connect 9 0 10 0;
#X connect 9 0 13 0;
#X connect 10 0 9 1;
#X connect 11 0 9 0;
#X connect 13 0 12 1;
#X connect 14 0 34 0;
#X connect 15 0 34 0;
#X connect 16 0 34 0;
#X connect 17 0 34 0;
#X connect 18 0 34 0;
#X connect 19 0 34 0;
#X connect 20 0 34 0;
#X connect 21 0 74 0;
#X connect 22 0 21 1;
#X connect 24 0 64 0;
#X connect 24 1 6 0;
#X connect 25 0 75 0;
#X connect 25 0 77 1;
#X connect 26 0 34 0;
#X connect 27 0 34 0;
#X connect 28 0 34 0;
#X connect 29 0 34 0;
#X connect 30 0 34 0;
#X connect 31 0 34 0;
#X connect 32 0 34 0;
#X connect 33 0 32 0;
#X connect 33 1 31 0;
#X connect 33 2 30 0;
#X connect 33 3 29 0;
#X connect 33 4 28 0;
#X connect 33 5 27 0;
#X connect 33 6 26 0;
#X connect 33 7 20 0;
#X connect 33 8 19 0;
#X connect 33 9 18 0;
#X connect 33 10 17 0;
#X connect 33 11 16 0;
#X connect 33 12 15 0;
#X connect 33 13 14 0;
#X connect 33 14 11 0;
#X connect 34 0 35 0;
#X connect 35 0 12 0;
#X connect 35 1 9 0;
#X connect 36 0 38 0;
#X connect 38 0 37 0;
#X connect 39 0 54 0;
#X connect 40 0 53 0;
#X connect 41 0 55 0;
#X connect 42 0 46 1;
#X connect 43 0 46 0;
#X connect 44 0 77 0;
#X connect 45 0 46 2;
#X connect 46 0 72 0;
#X connect 47 0 49 0;
#X connect 48 0 43 0;
#X connect 48 1 42 0;
#X connect 48 2 41 0;
#X connect 48 3 40 0;
#X connect 48 4 39 0;
#X connect 49 0 1 0;
#X connect 50 0 49 1;
#X connect 53 0 47 0;
#X connect 54 0 47 0;
#X connect 55 0 47 0;
#X connect 57 0 62 0;
#X connect 58 1 60 0;
#X connect 58 2 56 0;
#X connect 58 3 57 0;
#X connect 59 0 60 1;
#X connect 60 0 61 0;
#X connect 63 0 49 1;
#X connect 64 0 2 0;
#X connect 65 0 67 0;
#X connect 66 0 65 1;
#X connect 67 0 48 0;
#X connect 68 0 69 0;
#X connect 69 0 70 0;
#X connect 70 0 54 0;
#X connect 70 1 54 0;
#X connect 70 2 54 0;
#X connect 70 3 54 0;
#X connect 72 0 47 0;
#X connect 73 0 58 0;
#X connect 74 0 33 0;
#X connect 75 0 65 0;
#X connect 75 0 66 0;
#X connect 75 0 68 0;
#X connect 75 1 76 0;
#X connect 77 0 75 0;
#X connect 78 0 23 0;
#X connect 79 0 72 0;
#X connect 79 0 55 0;
#X connect 79 0 53 0;
#X connect 79 0 54 0;
#X connect 81 0 82 0;
