#N canvas 257 22 1124 670 10;
#X obj 180 43 inlet midi;
#X obj 480 633 outlet midi;
#X obj 678 38 inlet tempo;
#X obj 961 156 inlet parameters;
#X msg 619 90 60000;
#X obj 619 68 loadbang;
#X obj 678 115 /;
#X obj 678 91 t b f;
#X obj 678 68 change;
#X obj 604 141 metro;
#X msg 604 111 1;
#X obj 638 177 + 1;
#X obj 604 177 f 0;
#X obj 180 67 unpack f f;
#X obj 259 148 s \$0-velocity;
#X obj 480 593 pack f f;
#X obj 526 573 r \$0-velocity;
#X obj 604 470 tabread \$0-arpegio;
#X obj 724 470 table \$0-arpegio;
#X obj 926 29 loadbang;
#X obj 926 55 f \$0;
#X obj 180 248 tabwrite \$0-arpegio;
#X obj 604 282 % 4;
#X obj 259 126 spigot;
#X obj 292 90 != 0;
#X obj 180 118 spigot;
#X obj 391 88 == 0;
#X msg 453 167 0;
#X obj 453 196 s \$0-velocity;
#X obj 604 438 t f f;
#X msg 483 73 0;
#X text 384 48 Attack resetea arpegio;
#X msg 930 84 \; \$1-arpegio resize 4;
#X obj 188 164 sel 1;
#X obj 188 189 f 0;
#X obj 212 189 + 1;
#X obj 189 208 % 4;
#X obj 389 123 spigot;
#X obj 389 141 t b b b b b;
#X obj 961 179 route modo;
#X obj 960 203 oss/denormalize 0 4;
#X obj 961 228 int;
#X text 383 214 2 si la velocidad es = 0 \; recorre la tabla arpegio
con \; velocidad 0;
#X text 647 437 Leer tabla arpegio;
#X obj 631 573 f;
#X obj 604 503 t f b;
#X obj 631 603 pack f 0;
#X obj 646 552 r \$0-nota-midi-anterior;
#X obj 646 528 s \$0-nota-midi-anterior;
#N canvas 0 22 450 300 (subpatch) 0;
#X array \$0-modos 16 float 3;
#A 0 3 2 1 0 0 1 2 3 0 2 1 3 0 3 1 2;
#X coords 0 3 16 0 200 140 1 0 0;
#X restore 879 340 graph;
#X obj 604 404 tabread \$0-modos;
#X obj 677 273 r \$0-modo;
#X obj 604 348 +;
#X obj 677 319 * 4;
#X obj 677 296 - 1;
#X obj 961 250 s \$0-modo;
#X obj 604 241 spigot;
#X obj 679 194 r \$0-modo;
#X obj 679 217 != 0;
#X obj 108 84 r \$0-modo;
#X obj 108 111 == 0;
#X obj 45 99 spigot;
#X obj 120 206 % 4;
#X obj 45 199 unpack f f;
#X obj 45 311 demux 3 2 1 0;
#X obj 45 153 t l b;
#N canvas 102 113 450 300 equal 0;
#X obj 39 45 inlet;
#X obj 78 45 inlet;
#X obj 38 242 outlet;
#X obj 39 106 ==;
#X obj 180 45 inlet;
#X obj 219 45 inlet;
#X obj 180 106 ==;
#X obj 39 167 &&;
#X obj 110 103 ==;
#X obj 121 166 &&;
#X obj 73 209 &&;
#X connect 0 0 3 0;
#X connect 1 0 3 1;
#X connect 1 0 8 0;
#X connect 3 0 7 0;
#X connect 4 0 6 0;
#X connect 4 0 8 1;
#X connect 5 0 6 1;
#X connect 6 0 9 1;
#X connect 7 0 10 0;
#X connect 8 0 7 1;
#X connect 8 0 9 0;
#X connect 9 0 10 1;
#X connect 10 0 2 0;
#X restore 45 338 pd equal;
#X obj 153 184 + 1;
#X obj 119 185 f 0;
#X obj 120 228 t 4 f;
#X obj 120 282 -;
#X msg 120 254 3;
#X text 184 269 LLenar la tabla con midi que llega;
#X obj 9 419 spigot;
#X obj 44 376 == 0;
#X obj 95 404 list;
#X obj 95 377 select 1;
#X text 239 415 En modo 0 (apagado) \; si las 4 notas son iguales \;
solo deje pasar una.;
#X connect 0 0 13 0;
#X connect 0 0 30 0;
#X connect 0 0 61 0;
#X connect 2 0 8 0;
#X connect 3 0 39 0;
#X connect 4 0 6 0;
#X connect 5 0 4 0;
#X connect 5 0 10 0;
#X connect 6 0 9 1;
#X connect 7 0 6 0;
#X connect 7 1 6 1;
#X connect 8 0 7 0;
#X connect 9 0 12 0;
#X connect 10 0 9 0;
#X connect 11 0 12 1;
#X connect 12 0 11 0;
#X connect 12 0 56 0;
#X connect 13 0 25 0;
#X connect 13 1 24 0;
#X connect 13 1 23 0;
#X connect 13 1 26 0;
#X connect 15 0 1 0;
#X connect 16 0 15 1;
#X connect 17 0 45 0;
#X connect 19 0 20 0;
#X connect 20 0 32 0;
#X connect 22 0 52 0;
#X connect 23 0 14 0;
#X connect 24 0 23 1;
#X connect 24 0 25 1;
#X connect 24 0 33 0;
#X connect 25 0 21 0;
#X connect 26 0 37 1;
#X connect 26 0 37 0;
#X connect 27 0 28 0;
#X connect 29 0 17 0;
#X connect 30 0 12 0;
#X connect 33 0 34 0;
#X connect 34 0 35 0;
#X connect 34 0 36 0;
#X connect 35 0 34 1;
#X connect 36 0 21 1;
#X connect 37 0 38 0;
#X connect 38 0 12 0;
#X connect 38 1 12 0;
#X connect 38 2 12 0;
#X connect 38 3 12 0;
#X connect 38 4 27 0;
#X connect 39 0 40 0;
#X connect 40 0 41 0;
#X connect 41 0 55 0;
#X connect 44 0 46 0;
#X connect 45 0 15 0;
#X connect 45 0 48 0;
#X connect 45 1 44 0;
#X connect 46 0 1 0;
#X connect 47 0 44 1;
#X connect 50 0 29 0;
#X connect 51 0 54 0;
#X connect 52 0 50 0;
#X connect 53 0 52 1;
#X connect 54 0 53 0;
#X connect 56 0 22 0;
#X connect 57 0 58 0;
#X connect 58 0 56 1;
#X connect 59 0 60 0;
#X connect 60 0 61 1;
#X connect 61 0 65 0;
#X connect 61 0 73 0;
#X connect 61 0 75 1;
#X connect 62 0 69 0;
#X connect 63 0 64 0;
#X connect 64 0 66 0;
#X connect 64 1 66 1;
#X connect 64 2 66 2;
#X connect 64 3 66 3;
#X connect 65 0 63 0;
#X connect 65 1 68 0;
#X connect 66 0 74 0;
#X connect 66 0 76 0;
#X connect 67 0 68 1;
#X connect 68 0 62 0;
#X connect 68 0 67 0;
#X connect 69 0 71 0;
#X connect 69 1 70 1;
#X connect 70 0 64 1;
#X connect 71 0 70 0;
#X connect 73 0 1 0;
#X connect 74 0 73 1;
#X connect 75 0 1 0;
#X connect 76 0 75 0;
