#N canvas 566 145 792 530 10;
#X obj 8 40 inlet midi;
#X obj 394 456 outlet midi;
#X obj 421 30 inlet tempo;
#X obj 507 30 inlet parameters;
#X obj 507 53 route mode;
#X obj 507 76 clip 0 4;
#X obj 507 99 int;
#X obj 507 122 s \$0-mode;
#X msg 362 84 60000;
#X obj 362 62 loadbang;
#X obj 421 109 /;
#X obj 421 85 t b f;
#X obj 421 62 change;
#X obj 394 141 metro;
#X msg 347 105 1;
#X obj 428 177 + 1;
#X obj 394 177 f 0;
#X obj 8 64 unpack f f;
#X obj 65 156 s \$0-velocity;
#X obj 394 381 pack f f;
#X obj 439 360 r \$0-velocity;
#X obj 394 336 tabread \$0-arpegio;
#X obj 514 336 table \$0-arpegio;
#X obj 631 29 loadbang;
#X obj 631 55 f \$0;
#X obj -14 275 tabwrite \$0-arpegio;
#X obj 394 202 % 4;
#X obj 65 134 spigot;
#X obj 98 87 != 0;
#X obj 8 115 spigot;
#X obj 191 83 == 0;
#X obj 132 462 select 1;
#X msg 253 162 0;
#X obj 253 191 s \$0-velocity;
#X obj 394 232 t f f;
#X obj 645 296 tabread \$0-arpegio;
#X obj 645 277 - 1;
#X msg 273 73 0;
#X text 174 48 Attack resetea arpegio;
#X obj 633 229 print i;
#X obj 674 334 print v;
#X obj 128 535 tabread \$0-arpegio;
#X floatatom 501 202 5 0 0 0 - - -;
#X msg 631 78 \; \$1-arpegio resize 4;
#X obj -16 395 print outlet;
#X obj 73 376 spigot;
#X obj 113 346 tgl 15 0 empty empty empty 17 7 0 10 -262144 -1 -1 0
1;
#X obj -11 356 pack f f;
#X obj 21 161 sel 1;
#X obj 21 186 f 0;
#X obj 45 186 + 1;
#X obj 22 205 % 4;
#X text 65 210 1 Si la velocidad es mayor que uno avanza el indice
;
#X obj 127 489 f 0;
#X obj 152 490 + 1;
#X obj 129 509 % 4;
#X obj 175 517 bang;
#X obj 189 118 spigot;
#X obj 176 270 t b b b b b;
#X msg 645 355 \$1 64;
#X connect 0 0 17 0;
#X connect 0 0 37 0;
#X connect 2 0 12 0;
#X connect 3 0 4 0;
#X connect 4 0 5 0;
#X connect 5 0 6 0;
#X connect 6 0 7 0;
#X connect 8 0 10 0;
#X connect 9 0 8 0;
#X connect 9 0 14 0;
#X connect 10 0 13 1;
#X connect 11 0 10 0;
#X connect 11 1 10 1;
#X connect 12 0 11 0;
#X connect 13 0 16 0;
#X connect 14 0 13 0;
#X connect 15 0 16 1;
#X connect 16 0 15 0;
#X connect 16 0 26 0;
#X connect 17 0 29 0;
#X connect 17 1 28 0;
#X connect 17 1 27 0;
#X connect 17 1 30 0;
#X connect 19 0 1 0;
#X connect 19 0 45 0;
#X connect 20 0 19 1;
#X connect 21 0 19 0;
#X connect 23 0 24 0;
#X connect 24 0 43 0;
#X connect 26 0 34 0;
#X connect 26 0 42 0;
#X connect 27 0 18 0;
#X connect 28 0 27 1;
#X connect 28 0 29 1;
#X connect 28 0 48 0;
#X connect 29 0 25 0;
#X connect 30 0 57 1;
#X connect 30 0 57 0;
#X connect 31 0 53 0;
#X connect 32 0 33 0;
#X connect 34 0 21 0;
#X connect 34 1 36 0;
#X connect 35 0 59 0;
#X connect 36 0 35 0;
#X connect 37 0 16 0;
#X connect 45 0 44 0;
#X connect 46 0 45 1;
#X connect 47 0 45 0;
#X connect 48 0 49 0;
#X connect 49 0 50 0;
#X connect 49 0 51 0;
#X connect 50 0 49 1;
#X connect 51 0 25 1;
#X connect 53 0 54 0;
#X connect 53 0 55 0;
#X connect 54 0 53 1;
#X connect 55 0 41 0;
#X connect 55 0 56 0;
#X connect 57 0 58 0;
#X connect 58 0 16 0;
#X connect 58 1 16 0;
#X connect 58 2 16 0;
#X connect 58 3 16 0;
#X connect 58 4 32 0;
