#N canvas 369 22 792 530 10;
#X obj 8 40 inlet midi;
#X obj 394 411 outlet midi;
#X obj 421 30 inlet tempo;
#X obj 507 30 inlet parameters;
#X obj 507 53 route mode;
#X obj 507 76 clip 0 4;
#X obj 507 99 int;
#X obj 507 122 s \$0-mode;
#X msg 362 84 60000;
#X obj 362 62 loadbang;
#X obj 421 109 /;
#X obj 421 85 t b f;
#X obj 421 62 change;
#X obj 394 141 metro;
#X msg 347 105 1;
#X obj 428 177 + 1;
#X obj 394 177 f 0;
#X obj 8 64 unpack f f;
#X obj 65 156 s \$0-velocity;
#X obj 394 381 pack f f;
#X obj 439 360 r \$0-velocity;
#X obj 394 336 tabread \$0-arpegio;
#X obj 514 336 table \$0-arpegio;
#X obj 83 221 + 1;
#X obj 49 221 f 0;
#X obj 631 29 loadbang;
#X obj 631 55 f \$0;
#X msg 631 78 \; \$1-arpegio resize 4;
#X obj 8 277 tabwrite \$0-arpegio;
#X obj 8 192 t f b;
#X obj 49 246 % 4;
#X obj 394 202 % 4;
#X msg 133 242 0;
#X obj 65 134 spigot;
#X obj 98 87 != 0;
#X obj 8 115 spigot;
#X obj 191 83 == 0;
#X obj 191 115 select 1;
#X msg 254 231 0;
#X obj 254 254 s \$0-velocity;
#X obj 191 144 t b b b b b;
#X obj 394 232 t f f;
#X obj 645 296 tabread \$0-arpegio;
#X msg 645 355 \$1 0;
#X obj 648 407 print aaa;
#X obj 645 277 - 1;
#X msg 273 73 0;
#X text 174 48 Attack resetea arpegio;
#X obj 133 221 delay 200;
#X obj 475 226 print i;
#X obj 674 334 print v;
#X connect 0 0 17 0;
#X connect 0 0 46 0;
#X connect 2 0 12 0;
#X connect 3 0 4 0;
#X connect 4 0 5 0;
#X connect 5 0 6 0;
#X connect 6 0 7 0;
#X connect 8 0 10 0;
#X connect 9 0 8 0;
#X connect 9 0 14 0;
#X connect 10 0 13 1;
#X connect 11 0 10 0;
#X connect 11 1 10 1;
#X connect 12 0 11 0;
#X connect 13 0 16 0;
#X connect 14 0 13 0;
#X connect 15 0 16 1;
#X connect 16 0 15 0;
#X connect 16 0 31 0;
#X connect 17 0 35 0;
#X connect 17 1 34 0;
#X connect 17 1 33 0;
#X connect 17 1 36 0;
#X connect 19 0 1 0;
#X connect 20 0 19 1;
#X connect 21 0 19 0;
#X connect 23 0 24 1;
#X connect 24 0 23 0;
#X connect 24 0 30 0;
#X connect 25 0 26 0;
#X connect 26 0 27 0;
#X connect 29 0 28 0;
#X connect 29 1 24 0;
#X connect 29 1 48 0;
#X connect 30 0 28 1;
#X connect 31 0 41 0;
#X connect 31 0 49 0;
#X connect 32 0 24 0;
#X connect 33 0 18 0;
#X connect 34 0 33 1;
#X connect 34 0 35 1;
#X connect 35 0 29 0;
#X connect 36 0 37 0;
#X connect 37 0 40 0;
#X connect 38 0 39 0;
#X connect 40 0 16 0;
#X connect 40 1 16 0;
#X connect 40 2 16 0;
#X connect 40 3 16 0;
#X connect 40 4 38 0;
#X connect 41 0 21 0;
#X connect 41 1 45 0;
#X connect 42 0 43 0;
#X connect 42 0 50 0;
#X connect 43 0 1 0;
#X connect 43 0 44 0;
#X connect 45 0 42 0;
#X connect 46 0 16 0;
#X connect 48 0 32 0;
