#N canvas 385 139 792 530 10;
#X obj -14 40 inlet midi;
#X obj 394 384 outlet midi;
#X obj 421 30 inlet tempo;
#X obj 507 30 inlet parameters;
#X msg 362 84 60000;
#X obj 362 62 loadbang;
#X obj 421 109 /;
#X obj 421 85 t b f;
#X obj 421 62 change;
#X obj 394 141 metro;
#X msg 347 105 1;
#X obj 428 177 + 1;
#X obj 394 177 f 0;
#X obj -14 64 unpack f f;
#X obj 65 145 s \$0-velocity;
#X obj 394 309 pack f f;
#X obj 439 288 r \$0-velocity;
#X obj 394 264 tabread \$0-arpegio;
#X obj 514 264 table \$0-arpegio;
#X obj 631 29 loadbang;
#X obj 631 55 f \$0;
#X obj -14 275 tabwrite \$0-arpegio;
#X obj 394 202 % 4;
#X obj 65 123 spigot;
#X obj 98 87 != 0;
#X obj -14 115 spigot;
#X obj 191 83 == 0;
#X msg 253 162 0;
#X obj 253 191 s \$0-velocity;
#X obj 394 232 t f f;
#X msg 273 73 0;
#X text 174 48 Attack resetea arpegio;
#X msg 635 84 \; \$1-arpegio resize 4;
#X obj -6 161 sel 1;
#X obj -6 186 f 0;
#X obj 18 186 + 1;
#X obj -5 205 % 4;
#X obj 189 118 spigot;
#X obj 189 136 t b b b b b;
#X text 183 209 2 si la velocidad es = 0 \; recorre la tabla arpegio
con \; amplitud 0;
#X text 46 173 1 Si la velocidad es \; mayor que uno \; avanza el indice
;
#X obj 515 237 table \$0-patrones;
#X msg 631 121 : \$1-patrones resize 4;
#X obj -12 306 tabwrite \$0-patrones;
#X obj 507 53 route modo;
#X obj -2 451 print modo;
#X obj 506 141 s \$0-mode;
#X obj -2 357 r \$0-mode;
#X obj 506 77 oss/denormalize 0 4;
#X obj 506 98 clip 0 4;
#X obj 506 119 int;
#X obj 140 394 != 0;
#X obj 195 396 != 0;
#X connect 0 0 13 0;
#X connect 0 0 30 0;
#X connect 2 0 8 0;
#X connect 3 0 44 0;
#X connect 4 0 6 0;
#X connect 5 0 4 0;
#X connect 5 0 10 0;
#X connect 6 0 9 1;
#X connect 7 0 6 0;
#X connect 7 1 6 1;
#X connect 8 0 7 0;
#X connect 9 0 12 0;
#X connect 10 0 9 0;
#X connect 11 0 12 1;
#X connect 12 0 11 0;
#X connect 12 0 22 0;
#X connect 13 0 25 0;
#X connect 13 1 24 0;
#X connect 13 1 23 0;
#X connect 13 1 26 0;
#X connect 15 0 1 0;
#X connect 16 0 15 1;
#X connect 17 0 15 0;
#X connect 19 0 20 0;
#X connect 20 0 32 0;
#X connect 20 0 42 0;
#X connect 22 0 29 0;
#X connect 23 0 14 0;
#X connect 24 0 23 1;
#X connect 24 0 25 1;
#X connect 24 0 33 0;
#X connect 25 0 21 0;
#X connect 25 0 43 0;
#X connect 25 0 43 1;
#X connect 26 0 37 1;
#X connect 26 0 37 0;
#X connect 27 0 28 0;
#X connect 29 0 17 0;
#X connect 30 0 12 0;
#X connect 33 0 34 0;
#X connect 34 0 35 0;
#X connect 34 0 36 0;
#X connect 35 0 34 1;
#X connect 36 0 21 1;
#X connect 37 0 38 0;
#X connect 38 0 12 0;
#X connect 38 1 12 0;
#X connect 38 2 12 0;
#X connect 38 3 12 0;
#X connect 38 4 27 0;
#X connect 44 0 48 0;
#X connect 48 0 49 0;
#X connect 49 0 50 0;
#X connect 50 0 46 0;
