#N canvas 369 27 792 530 10;
#X obj 68 40 inlet midi;
#X obj 68 372 outlet midi;
#X obj 331 33 inlet tempo;
#X obj 507 30 inlet parameters;
#X obj 507 53 route mode;
#X obj 507 76 clip 0 4;
#X obj 507 99 int;
#X obj 507 122 s \$0-mode;
#X msg 272 87 60000;
#X obj 272 65 loadbang;
#X obj 331 112 /;
#X obj 331 88 t b f;
#X obj 331 65 change;
#X obj 304 144 metro;
#X msg 257 108 1;
#X obj 338 180 + 1;
#X obj 304 180 f 0;
#X obj 304 205 % 3;
#X obj 68 64 unpack f f;
#X obj 125 98 s \$0-velocity;
#X obj 304 274 pack f f;
#X obj 349 251 r \$0-velocity;
#X msg 158 60 65;
#X msg 188 72 0;
#X obj 304 227 tabread \$0-arpegio;
#X obj 424 227 table \$0-arpegio;
#X obj 434 407 table \$0-notas;
#X obj 314 407 tabwrite \$0-notas;
#X connect 0 0 18 0;
#X connect 2 0 12 0;
#X connect 3 0 4 0;
#X connect 4 0 5 0;
#X connect 5 0 6 0;
#X connect 6 0 7 0;
#X connect 8 0 10 0;
#X connect 9 0 8 0;
#X connect 9 0 14 0;
#X connect 10 0 13 1;
#X connect 11 0 10 0;
#X connect 11 1 10 1;
#X connect 12 0 11 0;
#X connect 13 0 16 0;
#X connect 14 0 13 0;
#X connect 15 0 16 1;
#X connect 16 0 15 0;
#X connect 16 0 17 0;
#X connect 17 0 24 0;
#X connect 18 1 19 0;
#X connect 20 0 1 0;
#X connect 21 0 20 1;
#X connect 22 0 19 0;
#X connect 23 0 19 0;
#X connect 24 0 20 0;
