#N canvas 0 22 715 431 10;
#X declare -path ../../vendors/oss;
#X declare -lib cyclone;
#X obj 65 450 declare -path ../../vendors/oss;
#X obj 354 69 oss/slider 0 1 1 0.5 nota;
#X obj 353 115 oss/slider 0 1 1 0.5 octava;
#X obj 417 208 hradio 15 1 0 2 empty empty empty 0 -8 0 10 -262144
-1 -1 1;
#X obj 557 207 hradio 15 1 0 2 empty empty empty 0 -8 0 10 -262144
-1 -1 1;
#X text 386 207 Push;
#X text 448 207 Toggle;
#X text 521 206 Notas;
#X text 589 206 Frecuencia;
#X msg 417 245 modo-boton \$1;
#X msg 557 245 modo-notas \$1;
#X obj 206 294 generadorNotas;
#N canvas 593 217 596 385 boton 0;
#X obj 184 320 outlet;
#X obj 270 77 mousestate;
#X obj 7 9 import cyclone;
#X msg 270 48 poll;
#X obj 270 23 loadbang;
#X obj 284 134 > 40;
#X obj 318 134 < 90;
#X obj 284 183 &&;
#X obj 318 157 t b f;
#X obj 376 133 > 100;
#X obj 414 133 < 150;
#X obj 376 187 &&;
#X obj 414 158 t b f;
#X obj 329 248 &&;
#X obj 376 211 t b f;
#X text 355 247 <-- Mouse en el rango del boton.;
#X obj 270 282 spigot;
#X text 117 150 Boton;
#X obj 100 150 tgl 15 0 empty empty empty 17 7 0 10 -262144 -1 -1 0
1;
#X obj 100 100 cnv 15 50 50 empty empty empty 20 12 0 14 -16662 -66577
0;
#X connect 1 0 16 0;
#X connect 1 1 5 0;
#X connect 1 1 6 0;
#X connect 1 2 9 0;
#X connect 1 2 10 0;
#X connect 3 0 1 0;
#X connect 4 0 3 0;
#X connect 5 0 7 0;
#X connect 6 0 8 0;
#X connect 7 0 13 0;
#X connect 8 0 7 0;
#X connect 8 1 7 1;
#X connect 9 0 11 0;
#X connect 10 0 12 0;
#X connect 11 0 14 0;
#X connect 12 0 11 0;
#X connect 12 1 11 1;
#X connect 13 0 16 1;
#X connect 14 0 13 0;
#X connect 14 1 13 1;
#X connect 16 0 0 0;
#X connect 18 0 0 0;
#X coords 0 -1 1 1 50 65 2 100 100;
#X restore 38 56 pd boton a;
#X text 35 16 ESTA VENTANA TIENE QUE ESTAR EN LA POSICION ARIIBA< IZQUIERDA
DE LA PANTALLA!!!!!!!!!!!!!!;
#X text 96 72 No mueva esta caja!!!!!;
#X obj 177 368 print MIDI;
#X obj 305 361 print Freq;
#X connect 1 0 11 1;
#X connect 2 0 11 1;
#X connect 3 0 9 0;
#X connect 4 0 10 0;
#X connect 9 0 11 1;
#X connect 10 0 11 1;
#X connect 11 0 15 0;
#X connect 11 1 16 0;
#X connect 12 0 11 0;
