#N canvas 305 36 920 707 10;
#X obj 31 37 inlet boton;
#X obj 556 355 inlet parametros;
#X obj 317 645 outlet frecuencia;
#X obj 556 390 route modo-boton modo-notas nota octava;
#X obj 556 609 clip 0 1;
#X obj 556 633 int;
#X obj 556 657 s \$0-modo-boton;
#X obj 613 532 clip 0 1;
#X obj 613 556 int;
#X obj 613 580 s \$0-modo-notas;
#X obj 671 477 clip 0 1;
#X obj 671 500 s \$0-nota;
#X obj 729 421 clip 0 1;
#X obj 729 444 s \$0-octava;
#X obj 31 396 outlet midi;
#N canvas 219 62 395 272 boton-toggle 0;
#X obj 204 15 inlet boton;
#X obj 237 38 r \$0-modo-boton;
#X obj 204 95 spigot;
#X obj 237 69 == 1;
#X obj 204 128 select 1;
#X obj 204 156 f 0;
#X obj 238 156 + 1;
#X obj 204 182 mod 2;
#X obj 204 218 outlet;
#X connect 0 0 2 0;
#X connect 1 0 3 0;
#X connect 2 0 4 0;
#X connect 3 0 2 1;
#X connect 4 0 5 0;
#X connect 5 0 6 0;
#X connect 5 0 7 0;
#X connect 6 0 5 1;
#X connect 7 0 8 0;
#X restore 199 111 pd boton-toggle;
#X obj 64 76 r \$0-modo-boton;
#X obj 31 133 spigot;
#X obj 64 107 == 0;
#X obj 199 72 spigot;
#X obj 232 46 == 1;
#X obj 232 20 r \$0-modo-boton;
#N canvas 223 125 866 439 push 0;
#X obj 194 5 inlet boton;
#X obj 337 374 outlet midi;
#X obj 194 131 select 1 0;
#X obj 368 142 r \$0-nota-midi;
#X obj 268 255 route 1;
#X obj 194 207 pack 1 f 65;
#X obj 225 178 r \$0-nota-midi;
#X obj 340 182 pack 1 f 0;
#X text 8 267 Note on y off cuando boton push y des-push;
#X obj 601 242 r \$0-nota-midi-anterior;
#X msg 601 310 \$1 0;
#X obj 601 286 spigot;
#X obj 634 263 r \$0-pushed;
#X obj 491 288 spigot;
#X obj 524 265 r \$0-pushed;
#X msg 491 312 \$1 65;
#X obj 491 244 r \$0-nota-midi;
#X text 488 212 Si el boton esta undido \, mandar eventos cuando la
nota cambia;
#X connect 0 0 2 0;
#X connect 2 0 5 0;
#X connect 2 1 7 0;
#X connect 3 0 7 1;
#X connect 4 0 1 0;
#X connect 5 0 4 0;
#X connect 6 0 5 1;
#X connect 7 0 4 0;
#X connect 9 0 11 0;
#X connect 10 0 1 0;
#X connect 11 0 10 0;
#X connect 12 0 11 1;
#X connect 13 0 15 0;
#X connect 14 0 13 1;
#X connect 15 0 1 0;
#X connect 16 0 13 0;
#X restore 31 207 pd push;
#X obj 474 111 r \$0-modo-notas;
#X obj 474 139 == 0;
#X obj 441 164 spigot;
#X obj 384 166 spigot;
#X obj 384 83 r \$0-nota;
#X obj 441 55 r \$0-octava;
#N canvas 388 96 448 509 modo-notas 0;
#X obj 51 31 inlet nota;
#X obj 197 26 inlet octava;
#X obj 53 374 outlet nota-midi;
#X obj 153 350 outlet nota-midi-anterior;
#X obj 197 126 * 12;
#X obj 53 212 +;
#X obj 197 154 t b f;
#X obj 53 85 oss/denormalize 0 11;
#X obj 197 74 oss/denormalize 0 10;
#X obj 53 248 change;
#X obj 53 113 int;
#X obj 197 101 int;
#X obj 53 279 t f b;
#X obj 153 312 f;
#X obj 168 289 r \$0-nota-midi;
#X connect 0 0 7 0;
#X connect 1 0 8 0;
#X connect 4 0 6 0;
#X connect 5 0 9 0;
#X connect 6 0 5 0;
#X connect 6 1 5 1;
#X connect 7 0 10 0;
#X connect 8 0 11 0;
#X connect 9 0 12 0;
#X connect 10 0 5 0;
#X connect 11 0 4 0;
#X connect 12 0 2 0;
#X connect 12 1 13 0;
#X connect 13 0 3 0;
#X connect 14 0 13 1;
#X restore 384 200 pd modo-notas;
#X obj 384 244 s \$0-nota-midi;
#X obj 459 224 s \$0-nota-midi-anterior;
#X obj 82 251 r \$0-modo-notas;
#X obj 290 391 unpack f f;
#X obj 31 305 demux 0 1;
#X obj 82 279 == 1;
#X obj 759 117 r \$0-modo-notas;
#X obj 726 170 spigot;
#X obj 669 172 spigot;
#X obj 669 89 r \$0-nota;
#X obj 726 61 r \$0-octava;
#X text 387 35 NOTAS MIDI;
#X text 674 41 NOTAS FREQ;
#X obj 759 145 == 1;
#N canvas 342 288 448 509 modo-freq 0;
#X obj 53 31 inlet nota;
#X obj 245 28 inlet octava;
#X obj 53 282 +;
#X obj 245 226 t b f;
#X obj 53 318 change;
#X obj 53 229 oss/denormalize;
#X msg 140 161 min \$1;
#X msg 193 187 max \$1;
#X obj 53 444 outlet nota-freq;
#X obj 193 160 * 4;
#X obj 53 165 f;
#X obj 113 124 t b f;
#X obj 166 125 t b f;
#X obj 247 76 oss/denormalize 10 2000;
#X connect 0 0 10 0;
#X connect 1 0 13 0;
#X connect 2 0 4 0;
#X connect 3 0 2 0;
#X connect 3 1 2 1;
#X connect 4 0 8 0;
#X connect 5 0 2 0;
#X connect 6 0 5 1;
#X connect 7 0 5 1;
#X connect 9 0 7 0;
#X connect 10 0 5 0;
#X connect 11 0 10 0;
#X connect 11 1 6 0;
#X connect 12 0 10 0;
#X connect 12 1 9 0;
#X connect 13 0 3 0;
#X connect 13 0 11 0;
#X connect 13 0 12 0;
#X restore 669 206 pd modo-freq;
#X obj 669 250 s \$0-nota-freq;
#X obj 347 429 t b f;
#X obj 317 575 pack 1 f f;
#X obj 38 158 s \$0-pushed;
#X obj 245 469 r \$0-pushed;
#X obj 212 504 spigot;
#X obj 212 434 r \$0-nota-freq;
#X obj 212 534 t b f;
#X text 201 335 Aqui nos robamos los atacks (velocity) de modo midi
para modo frecuencias;
#X obj 317 611 route 1;
#X connect 0 0 17 0;
#X connect 0 0 19 0;
#X connect 1 0 3 0;
#X connect 3 0 4 0;
#X connect 3 1 7 0;
#X connect 3 2 10 0;
#X connect 3 3 12 0;
#X connect 4 0 5 0;
#X connect 5 0 6 0;
#X connect 7 0 8 0;
#X connect 8 0 9 0;
#X connect 10 0 11 0;
#X connect 12 0 13 0;
#X connect 15 0 22 0;
#X connect 15 0 48 0;
#X connect 16 0 18 0;
#X connect 17 0 22 0;
#X connect 17 0 48 0;
#X connect 18 0 17 1;
#X connect 19 0 15 0;
#X connect 20 0 19 1;
#X connect 21 0 20 0;
#X connect 22 0 34 0;
#X connect 23 0 24 0;
#X connect 24 0 25 1;
#X connect 24 0 26 1;
#X connect 25 0 29 1;
#X connect 26 0 29 0;
#X connect 27 0 26 0;
#X connect 28 0 25 0;
#X connect 29 0 30 0;
#X connect 29 1 31 0;
#X connect 32 0 35 0;
#X connect 33 1 46 0;
#X connect 34 0 14 0;
#X connect 34 1 33 0;
#X connect 35 0 34 1;
#X connect 36 0 43 0;
#X connect 37 0 44 1;
#X connect 38 0 44 0;
#X connect 39 0 38 0;
#X connect 40 0 37 0;
#X connect 43 0 37 1;
#X connect 43 0 38 1;
#X connect 44 0 45 0;
#X connect 46 0 47 0;
#X connect 46 1 47 2;
#X connect 47 0 54 0;
#X connect 49 0 50 1;
#X connect 50 0 52 0;
#X connect 51 0 50 0;
#X connect 52 0 47 0;
#X connect 52 1 47 1;
#X connect 54 0 2 0;
