#N canvas 507 82 669 686 10;
#X obj 106 65 oss/denormalize -20 20;
#X obj 106 21 inlet parameters;
#X obj 4 18 inlet boton;
#X obj 4 82 send \$0-tap;
#X obj 106 44 route tempo-ajuste;
#X obj 106 87 send \$0-tempo-ajuste;
#X obj 432 81 + 1;
#X obj 402 111 % 3;
#X obj 402 81 f 0;
#X obj 336 249 demux 1 2 3;
#X obj 335 81 timer;
#X obj 336 25 r \$0-tap;
#X obj 336 276 f;
#X obj 366 276 f;
#X obj 408 275 f;
#X obj 402 139 + 1;
#X obj 4 51 select 1;
#X obj 336 50 t b b b;
#X obj 350 147 < 5000;
#X obj 320 189 spigot;
#X obj 333 105 t f f;
#X obj 366 304 t b f;
#X obj 408 304 t b f;
#X obj 336 363 expr 60000/$f1;
#X obj 336 331 expr ($f1+$f2+$f3)/3;
#X obj 456 503 metro;
#X obj 456 477 t b f;
#X text 180 308 promedio de los 3 ultimos \; tiempos en ms;
#X text 193 356 convertir de ms a bpm;
#X obj 336 560 f;
#X obj 336 589 outlet tempo;
#X obj 456 544 outlet led;
#X obj 226 390 r \$0-tempo-ajuste;
#X obj 336 424 + 0;
#X obj 336 393 t b f;
#X obj 456 450 expr 60000/$f1;
#X connect 0 0 5 0;
#X connect 1 0 4 0;
#X connect 2 0 16 0;
#X connect 4 0 0 0;
#X connect 6 0 8 1;
#X connect 7 0 15 0;
#X connect 8 0 6 0;
#X connect 8 0 7 0;
#X connect 9 0 12 0;
#X connect 9 1 13 0;
#X connect 9 2 14 0;
#X connect 10 0 20 0;
#X connect 11 0 17 0;
#X connect 12 0 24 0;
#X connect 13 0 21 0;
#X connect 14 0 22 0;
#X connect 15 0 9 1;
#X connect 16 0 3 0;
#X connect 17 0 10 0;
#X connect 17 1 10 1;
#X connect 17 2 8 0;
#X connect 18 0 19 1;
#X connect 19 0 9 0;
#X connect 20 0 19 0;
#X connect 20 1 18 0;
#X connect 21 0 24 0;
#X connect 21 1 24 1;
#X connect 22 0 24 0;
#X connect 22 1 24 2;
#X connect 23 0 34 0;
#X connect 24 0 23 0;
#X connect 25 0 29 0;
#X connect 25 0 31 0;
#X connect 26 0 25 0;
#X connect 26 1 25 1;
#X connect 29 0 30 0;
#X connect 32 0 33 0;
#X connect 33 0 29 0;
#X connect 33 0 35 0;
#X connect 34 0 33 0;
#X connect 34 1 33 1;
#X connect 35 0 26 0;
