#N canvas 452 82 875 670 10;
#X obj 581 12 inlet params;
#X obj 407 508 outlet~;
#X obj 22 443 oss/resonant-lopass;
#X obj 580 162 s \$0-filtro;
#X obj 133 346 r \$0-filtro;
#X obj 208 346 loadbang;
#X msg 208 370 1;
#X msg 208 416 q \$1;
#X obj 208 392 oss/normalize 1 4;
#X obj 636 141 s \$0-envolvente;
#X text 239 368 <- Q;
#X obj 693 121 s \$0-oscilador;
#N canvas 683 0 667 670 voices 0;
#X obj 35 18 inlet midi;
#X obj 156 110 inlet oscilador;
#X obj 254 110 inlet envolvente;
#X obj 35 304 outlet~;
#X obj 35 84 pack f f f;
#X obj 35 271 /~ 5;
#X obj 173 214 voice~;
#X obj 35 110 route 1 2 3 4;
#X obj 35 53 poly 4 1;
#X obj 422 25 inlet parameters;
#X obj 381 86 s \$0-mod-nota;
#X obj 423 56 route modo-notas primer-nivel;
#X obj 490 87 s \$0-primer-nivel;
#X obj 275 179 r \$0-mod-nota;
#X msg 275 207 mod-nota \$1;
#X obj 276 152 r \$0-primer-nivel;
#X obj 35 214 voice~;
#X obj 82 214 voice~;
#X obj 126 214 voice~;
#X connect 0 0 8 0;
#X connect 1 0 6 1;
#X connect 1 0 16 1;
#X connect 1 0 17 1;
#X connect 1 0 18 1;
#X connect 2 0 6 2;
#X connect 2 0 16 2;
#X connect 2 0 17 2;
#X connect 2 0 18 2;
#X connect 4 0 7 0;
#X connect 5 0 3 0;
#X connect 6 0 5 0;
#X connect 7 0 16 0;
#X connect 7 1 17 0;
#X connect 7 2 18 0;
#X connect 7 3 6 0;
#X connect 8 0 4 0;
#X connect 8 1 4 1;
#X connect 8 2 4 2;
#X connect 9 0 11 0;
#X connect 11 0 10 0;
#X connect 11 1 12 0;
#X connect 13 0 14 0;
#X connect 14 0 16 3;
#X connect 15 0 16 3;
#X connect 16 0 5 0;
#X connect 17 0 5 0;
#X connect 18 0 5 0;
#X restore 22 315 pd voices;
#X obj 140 271 r \$0-envolvente;
#X obj 47 271 r \$0-oscilador;
#X obj 407 480 oss/delay~;
#X obj 749 100 s \$0-delay;
#X obj 480 347 loadbang;
#X obj 464 318 r \$0-delay;
#X text 519 371 <- Feedback;
#X msg 480 371 0.7;
#X obj 480 393 oss/normalize 0 1;
#X msg 480 417 feedback \$1;
#X obj 23 136 arpegiador;
#X obj 119 114 r \$0-arpegiador;
#X obj 23 74 armonizador;
#X obj 806 80 s \$0-armonizador;
#X obj 104 74 r \$0-armonizador;
#X obj 862 57 s \$0-notas;
#X obj 23 46 generadorNotas;
#X obj 114 18 r \$0-notas;
#X text 922 525 0;
#X obj 565 208 s \$0-arpegiador;
#X obj 565 186 route arpegiador;
#X obj 23 16 inlet boton;
#X obj 138 46 s \$0-frecuencia;
#X obj 113 181 r \$0-frecuencia;
#X msg 114 207 primer-nivel segundo-nivel modofrecuencia \$1 \$2;
#X obj 116 152 r \$0-notas;
#X obj 435 117 metronomo;
#X obj 641 477 outlet led;
#X obj 435 7 inlet boton-tempo;
#X obj 580 35 route filtro envolvente oscilador delay armonizador notas
;
#X obj 935 29 route metronomo;
#X obj 935 60 s \$0-metronomo;
#X obj 486 70 r \$0-metronomo;
#X connect 0 0 33 0;
#X connect 0 0 42 0;
#X connect 0 0 43 0;
#X connect 2 0 15 0;
#X connect 4 0 2 1;
#X connect 5 0 6 0;
#X connect 6 0 8 0;
#X connect 7 0 2 1;
#X connect 8 0 7 0;
#X connect 12 0 2 0;
#X connect 13 0 12 2;
#X connect 14 0 12 1;
#X connect 15 0 1 0;
#X connect 17 0 20 0;
#X connect 18 0 15 2;
#X connect 20 0 21 0;
#X connect 21 0 22 0;
#X connect 22 0 15 2;
#X connect 23 0 12 0;
#X connect 24 0 23 2;
#X connect 25 0 23 0;
#X connect 27 0 25 1;
#X connect 29 0 25 0;
#X connect 29 1 35 0;
#X connect 30 0 29 1;
#X connect 33 0 32 0;
#X connect 34 0 29 0;
#X connect 36 0 37 0;
#X connect 37 0 12 3;
#X connect 38 0 12 3;
#X connect 39 0 23 1;
#X connect 39 0 15 1;
#X connect 39 1 40 0;
#X connect 41 0 39 0;
#X connect 42 0 3 0;
#X connect 42 1 9 0;
#X connect 42 2 11 0;
#X connect 42 3 16 0;
#X connect 42 4 26 0;
#X connect 42 5 28 0;
#X connect 43 0 44 0;
#X connect 45 0 39 1;
