#N canvas 310 88 825 670 10;
#X obj 481 12 inlet params;
#X obj 319 494 outlet~;
#X obj 23 402 oss/resonant-lopass;
#X obj 481 214 s \$0-filtro;
#X obj 134 306 r \$0-filtro;
#X obj 209 306 loadbang;
#X msg 209 330 1;
#X msg 209 376 q \$1;
#X obj 209 352 oss/normalize 1 4;
#X obj 538 193 s \$0-envolvente;
#X text 248 330 <- Q;
#X obj 596 173 s \$0-oscilador;
#X obj 23 16 inlet midi;
#N canvas 351 228 775 509 voices 1;
#X obj -62 29 inlet midi;
#X obj 59 25 inlet oscilador;
#X obj 157 25 inlet envolvente;
#X obj -62 315 outlet~;
#X obj -62 225 voice~;
#X obj -62 95 pack f f f;
#X obj -62 282 /~ 5;
#X obj -62 121 route 1 2 3 4;
#X obj -62 64 poly 4 1;
#X obj -240 104 r \$0-modo-frecuencia;
#X obj 310 23 inlet parameters;
#X msg -240 129 modofrecuencia \$1 \$2;
#X obj 378 85 s \$0-modo-frecuencia;
#X obj 311 54 route modo-notas modofrecuencia;
#X obj 269 84 s \$0-mod-nota;
#X obj -260 182 r \$0-mod-nota;
#X msg -260 210 mod-nota \$1;
#X obj -15 225 voice~;
#X obj 29 225 voice~;
#X obj 76 225 voice~;
#X connect 0 0 8 0;
#X connect 1 0 4 2;
#X connect 1 0 17 2;
#X connect 1 0 18 2;
#X connect 1 0 19 2;
#X connect 2 0 4 3;
#X connect 2 0 17 3;
#X connect 2 0 18 3;
#X connect 2 0 19 3;
#X connect 4 0 6 0;
#X connect 5 0 7 0;
#X connect 6 0 3 0;
#X connect 7 0 4 1;
#X connect 7 1 17 1;
#X connect 7 2 18 1;
#X connect 7 3 19 1;
#X connect 8 0 5 0;
#X connect 8 1 5 1;
#X connect 8 2 5 2;
#X connect 9 0 11 0;
#X connect 10 0 13 0;
#X connect 11 0 4 0;
#X connect 13 0 14 0;
#X connect 13 1 12 0;
#X connect 15 0 16 0;
#X connect 16 0 4 0;
#X connect 17 0 6 0;
#X connect 18 0 6 0;
#X connect 19 0 6 0;
#X restore 23 278 pd voices;
#X obj 60 216 r \$0-envolvente;
#X obj 44 186 r \$0-oscilador;
#X obj 347 10 inlet tempo;
#X obj 319 436 oss/delay~;
#X obj 654 153 s \$0-delay;
#X obj 489 320 loadbang;
#X obj 414 320 r \$0-delay;
#X text 528 344 <- Feedback;
#X msg 489 344 0.7;
#X obj 489 366 oss/normalize 0 1;
#X msg 489 390 feedback \$1;
#X obj 24 136 arpegiador;
#X obj 119 114 r \$0-arpegiador;
#X obj 23 74 armonizador;
#X obj 717 133 s \$0-armonizador;
#X obj 106 72 r \$0-armonizador;
#X obj 761 110 s \$0-notas;
#X obj 23 46 generadorNotas;
#X obj 114 18 r \$0-notas;
#X text 1114 472 0;
#X obj 836 68 s \$0-arpegiador;
#X obj 480 35 route filtro envolvente oscilador delay armonizador notas
;
#X obj 835 36 route arpegiador;
#X obj 76 238 r \$0-notas;
#X obj 133 50 s \$0-frecuencia;
#X obj 162 225 r \$0-frecuencia;
#X msg 163 252 modofrecuencia \$1 \$2;
#X connect 0 0 35 0;
#X connect 0 0 36 0;
#X connect 2 0 17 0;
#X connect 4 0 2 1;
#X connect 5 0 6 0;
#X connect 6 0 8 0;
#X connect 7 0 2 1;
#X connect 8 0 7 0;
#X connect 12 0 31 0;
#X connect 13 0 2 0;
#X connect 14 0 13 2;
#X connect 15 0 13 1;
#X connect 16 0 17 1;
#X connect 16 0 25 1;
#X connect 17 0 1 0;
#X connect 19 0 22 0;
#X connect 20 0 17 2;
#X connect 22 0 23 0;
#X connect 23 0 24 0;
#X connect 24 0 17 2;
#X connect 25 0 13 0;
#X connect 26 0 25 2;
#X connect 27 0 25 0;
#X connect 29 0 27 1;
#X connect 31 0 27 0;
#X connect 31 1 38 0;
#X connect 32 0 31 1;
#X connect 35 0 3 0;
#X connect 35 1 9 0;
#X connect 35 2 11 0;
#X connect 35 3 18 0;
#X connect 35 4 28 0;
#X connect 35 5 30 0;
#X connect 36 0 34 0;
#X connect 37 0 13 3;
#X connect 39 0 40 0;
#X connect 40 0 13 3;
