#N canvas 248 47 834 722 10;
#X obj 341 12 inlet params;
#X obj 23 334 outlet~;
#X obj 23 214 oss/resonant-lopass;
#X obj 341 64 s \$0-filtro;
#X obj 134 117 r \$0-filtro;
#X obj 209 117 loadbang;
#X msg 209 141 1;
#X msg 209 187 q \$1;
#X obj 209 163 oss/normalize 1 4;
#X obj 416 64 s \$0-envolvente;
#X text 248 141 <- Q;
#X obj 341 37 route filtro envolvente oscilador;
#X obj 515 64 s \$0-oscilador;
#X obj 23 16 inlet midi;
#N canvas 595 237 775 509 voices 1;
#X obj 35 18 inlet midi;
#X obj 156 110 inlet oscilador;
#X obj 254 110 inlet envolvente;
#X obj 35 304 outlet~;
#X obj 35 214 voice~;
#X obj 35 53 poly 5;
#X obj 35 110 route 1 2 3 4 5;
#X obj 35 84 pack f f f;
#X obj 35 271 /~ 5;
#X obj 82 214 voice~;
#X obj 126 214 voice~;
#X obj 173 214 voice~;
#X obj 218 214 voice~;
#X connect 0 0 5 0;
#X connect 1 0 4 1;
#X connect 1 0 9 1;
#X connect 1 0 10 1;
#X connect 1 0 11 1;
#X connect 1 0 12 1;
#X connect 2 0 4 2;
#X connect 2 0 9 2;
#X connect 2 0 10 2;
#X connect 2 0 11 2;
#X connect 2 0 12 2;
#X connect 4 0 8 0;
#X connect 5 0 7 0;
#X connect 5 1 7 1;
#X connect 5 2 7 2;
#X connect 6 0 4 0;
#X connect 6 1 9 0;
#X connect 6 2 10 0;
#X connect 6 3 11 0;
#X connect 6 4 12 0;
#X connect 7 0 6 0;
#X connect 8 0 3 0;
#X connect 9 0 8 0;
#X connect 10 0 8 0;
#X connect 11 0 8 0;
#X connect 12 0 8 0;
#X restore 23 86 pd voices;
#X obj 141 42 r \$0-envolvente;
#X obj 48 42 r \$0-oscilador;
#X obj 23 307 *~ 1;
#X connect 0 0 11 0;
#X connect 2 0 17 0;
#X connect 4 0 2 1;
#X connect 5 0 6 0;
#X connect 6 0 8 0;
#X connect 7 0 2 1;
#X connect 8 0 7 0;
#X connect 11 0 3 0;
#X connect 11 1 9 0;
#X connect 11 2 12 0;
#X connect 13 0 14 0;
#X connect 14 0 2 0;
#X connect 15 0 14 2;
#X connect 16 0 14 1;
#X connect 17 0 1 0;
