#N canvas 724 230 529 476 10;
#X obj 317 44 inlet params;
#X obj 22 33 inlet midi;
#X obj 26 321 outlet~;
#X obj 26 277 oss/resonant-lopass;
#X obj 317 94 s \$0-filtro;
#X obj 317 69 route filtro;
#X obj 137 170 r \$0-filtro;
#X obj 212 170 loadbang;
#X msg 212 194 1;
#X msg 212 240 q \$1;
#X text 251 194 <- Q del filtro;
#X obj 212 216 oss/normalize 1 4;
#X obj 26 109 phasor~ 220;
#X connect 0 0 5 0;
#X connect 3 0 2 0;
#X connect 5 0 4 0;
#X connect 6 0 3 1;
#X connect 7 0 8 0;
#X connect 8 0 11 0;
#X connect 9 0 3 1;
#X connect 11 0 9 0;
#X connect 12 0 3 0;
