#N canvas 52 187 869 523 10;
#X obj 507 44 inlet params;
#X obj 391 115 inlet midi;
#X obj 20 450 outlet~;
#X obj 20 320 oss/resonant-lopass;
#X obj 507 96 s \$0-filtro;
#X obj 131 213 r \$0-filtro;
#X obj 206 213 loadbang;
#X msg 206 237 1;
#X msg 206 283 q \$1;
#X obj 206 259 oss/normalize 1 4;
#X obj 20 152 phasor~ 220;
#X obj 391 366 oss/envelope-adsr~;
#X obj 20 423 *~;
#X obj 507 69 route filtro envolvente;
#X obj 587 96 s \$0-envolvente;
#X obj 496 238 r \$0-envolvente;
#X obj 521 268 loadbang;
#X text 245 237 <- Q;
#X obj 521 314 oss/normalize 0 1;
#X msg 521 292 0.6;
#X text 560 292 <- Sustain;
#X msg 521 338 sustain \$1;
#X obj 638 314 oss/normalize 2 10000;
#X text 677 292 <- Decay;
#X msg 638 292 15;
#X msg 638 338 decay \$1;
#X connect 0 0 13 0;
#X connect 1 0 11 0;
#X connect 3 0 12 0;
#X connect 5 0 3 1;
#X connect 6 0 7 0;
#X connect 7 0 9 0;
#X connect 8 0 3 1;
#X connect 9 0 8 0;
#X connect 10 0 3 0;
#X connect 11 0 12 1;
#X connect 12 0 2 0;
#X connect 13 0 4 0;
#X connect 13 1 14 0;
#X connect 15 0 11 1;
#X connect 16 0 19 0;
#X connect 16 0 24 0;
#X connect 18 0 21 0;
#X connect 19 0 18 0;
#X connect 21 0 11 1;
#X connect 22 0 25 0;
#X connect 24 0 22 0;
#X connect 25 0 11 1;
