#N canvas 154 400 882 296 10;
#X obj 647 23 inlet params;
#X obj 299 271 outlet~;
#X obj 29 230 rj/s_osc;
#X obj 472 104 noise~;
#X obj 647 122 s \$0-waveform;
#X obj 647 74 oss/denormalize 0 4;
#X obj 647 98 int;
#X obj 776 75 loadbang;
#X msg 776 99 0;
#X obj 776 123 s \$0-waveform;
#X obj 252 73 select 0 1 2 3 4;
#X msg 252 216 switch 1 0 0 0;
#X msg 270 187 switch 0 1 0 0;
#X msg 289 164 switch 0 0 1 0;
#X msg 307 139 switch 0 0 0 1;
#X text 166 33 0: Sine \; 1: Saw \; 2: Square \; 3: Triangle \; 4:
Noise \;;
#X msg 326 105 switch 0 0 0 0;
#X obj 252 33 r \$0-waveform;
#X msg 575 104 1;
#X msg 538 104 0;
#X obj 472 132 *~ 0;
#X obj 647 48 route waveform;
#X obj 29 22 inlet midi;
#X obj 29 47 unpack f f;
#X obj 29 72 mtof~;
#X msg 99 72 220;
#X obj 99 47 loadbang;
#X connect 0 0 21 0;
#X connect 2 0 1 0;
#X connect 3 0 20 0;
#X connect 5 0 6 0;
#X connect 6 0 4 0;
#X connect 7 0 8 0;
#X connect 8 0 9 0;
#X connect 10 0 11 0;
#X connect 10 0 19 0;
#X connect 10 1 12 0;
#X connect 10 1 19 0;
#X connect 10 2 13 0;
#X connect 10 2 19 0;
#X connect 10 3 14 0;
#X connect 10 3 19 0;
#X connect 10 4 16 0;
#X connect 10 4 18 0;
#X connect 11 0 2 1;
#X connect 12 0 2 1;
#X connect 13 0 2 1;
#X connect 14 0 2 1;
#X connect 16 0 2 1;
#X connect 17 0 10 0;
#X connect 18 0 20 1;
#X connect 19 0 20 1;
#X connect 20 0 1 0;
#X connect 21 0 5 0;
#X connect 22 0 23 0;
#X connect 23 0 24 0;
#X connect 24 0 2 0;
#X connect 25 0 2 0;
#X connect 26 0 25 0;
