#N canvas 683 0 667 670 10;
#X obj 802 18 inlet params;
#X obj 19 558 outlet~;
#X obj 22 476 rj/s_osc;
#X obj 472 104 noise~;
#X obj 719 117 s \$0-waveform;
#X obj 719 69 oss/denormalize 0 4;
#X obj 719 93 int;
#X obj 606 20 loadbang;
#X msg 606 44 0;
#X obj 606 68 s \$0-waveform;
#X obj 252 73 select 0 1 2 3 4;
#X msg 252 216 switch 1 0 0 0;
#X msg 270 187 switch 0 1 0 0;
#X msg 289 164 switch 0 0 1 0;
#X msg 307 139 switch 0 0 0 1;
#X text 166 33 0: Sine \; 1: Saw \; 2: Square \; 3: Triangle \; 4:
Noise \;;
#X msg 326 105 switch 0 0 0 0;
#X obj 252 33 r \$0-waveform;
#X msg 575 104 1;
#X msg 538 104 0;
#X obj 472 132 *~ 0;
#X obj 29 22 inlet midi;
#X obj 29 47 unpack f f;
#X obj 29 72 mtof~;
#X msg 99 72 220;
#X obj 99 47 loadbang;
#X obj 858 73 s \$0-modo-frec;
#X obj 104 107 r \$0-modo-frec;
#X msg 104 147 set \$1;
#X msg 105 170 2744.12;
#X obj 103 122 t b f;
#X obj 47 205 ftom~;
#X obj 46 232 mtof~;
#X text 96 230 A);
#X obj 802 43 route waveform modofrecuencia modo-nota;
#X obj 961 81 s \$0-modo-nota;
#X obj 73 257 r \$0-modo-nota;
#X obj 73 332 line~;
#X obj 47 366 *~;
#X obj 73 296 pack 0 20;
#X text 163 452 A) el oscilador no: recibe cambio de frecuencia si
\; no es por ~: la ~ de la frecuencia entra con volumen 1 o 0 \; dependiendo
del modo de nota en el que este;
#X connect 0 0 34 0;
#X connect 2 0 1 0;
#X connect 3 0 20 0;
#X connect 5 0 6 0;
#X connect 6 0 4 0;
#X connect 7 0 8 0;
#X connect 8 0 9 0;
#X connect 10 0 11 0;
#X connect 10 0 19 0;
#X connect 10 1 12 0;
#X connect 10 1 19 0;
#X connect 10 2 13 0;
#X connect 10 2 19 0;
#X connect 10 3 14 0;
#X connect 10 3 19 0;
#X connect 10 4 16 0;
#X connect 10 4 18 0;
#X connect 11 0 2 1;
#X connect 12 0 2 1;
#X connect 13 0 2 1;
#X connect 14 0 2 1;
#X connect 16 0 2 1;
#X connect 17 0 10 0;
#X connect 18 0 20 1;
#X connect 19 0 20 1;
#X connect 20 0 1 0;
#X connect 21 0 22 0;
#X connect 22 0 23 0;
#X connect 23 0 2 0;
#X connect 24 0 31 0;
#X connect 25 0 24 0;
#X connect 27 0 30 0;
#X connect 28 0 29 0;
#X connect 29 0 31 0;
#X connect 30 0 29 0;
#X connect 30 1 28 0;
#X connect 31 0 32 0;
#X connect 32 0 38 0;
#X connect 34 0 5 0;
#X connect 34 1 26 0;
#X connect 34 2 35 0;
#X connect 36 0 39 0;
#X connect 37 0 38 1;
#X connect 38 0 2 0;
#X connect 39 0 37 0;
