#N canvas 614 167 792 530 10;
#X obj 68 40 inlet midi;
#X obj 68 333 outlet~;
#X obj 68 231 oscilador~;
#X obj 227 229 oss/envelope-adsr~;
#X obj 357 131 loadbang;
#X text 396 155 <- Sustain;
#X msg 357 201 sustain \$1;
#X obj 474 177 oss/normalize 2 10000;
#X text 513 155 <- Decay;
#X msg 474 201 decay \$1;
#X obj 357 177 oss/normalize 0 1;
#X obj 68 265 *~;
#X obj 146 40 inlet oscilador;
#X obj 332 41 inlet envolvente;
#X msg 474 155 10;
#X msg 357 155 0.8;
#X obj -85 40 inlet modo-frecuencia;
#X msg -79 126 modofrecuencia \$1;
#X obj -85 83 unpack f f;
#X obj -9 70 print a;
#X obj -80 175 print b;
#X connect 0 0 3 0;
#X connect 0 0 2 0;
#X connect 2 0 11 0;
#X connect 3 0 11 1;
#X connect 4 0 15 0;
#X connect 4 0 14 0;
#X connect 6 0 3 1;
#X connect 7 0 9 0;
#X connect 9 0 3 1;
#X connect 10 0 6 0;
#X connect 11 0 1 0;
#X connect 12 0 2 1;
#X connect 13 0 3 1;
#X connect 14 0 7 0;
#X connect 15 0 10 0;
#X connect 16 0 18 0;
#X connect 16 0 3 0;
#X connect 16 0 19 0;
#X connect 17 0 20 0;
#X connect 17 0 2 1;
#X connect 18 0 17 0;
