#N canvas 614 167 792 530 10;
#X obj 68 40 inlet midi;
#X obj 23 401 outlet~;
#X obj 23 299 oscilador~;
#X obj 249 292 oss/envelope-adsr~;
#X obj 357 131 loadbang;
#X text 396 155 <- Sustain;
#X msg 357 201 sustain \$1;
#X obj 474 177 oss/normalize 2 10000;
#X text 513 155 <- Decay;
#X msg 474 201 decay \$1;
#X obj 357 177 oss/normalize 0 1;
#X obj 23 333 *~;
#X obj 146 40 inlet oscilador;
#X obj 332 41 inlet envolvente;
#X msg 474 155 10;
#X msg 357 155 0.8;
#X obj -159 38 inlet parameters;
#X obj -158 77 route modofrecuencia mod-nota;
#X obj -157 110 s \$0-modofrecuencia;
#X obj 135 202 r \$0-modofrecuencia;
#X obj 136 241 unpack f f;
#X msg 136 268 modofrecuencia \$1;
#X obj -33 108 s \$0-mod-nota;
#X obj 131 143 r \$0-mod-nota;
#X msg 132 175 modo-nota \$1;
#X connect 0 0 3 0;
#X connect 0 0 2 0;
#X connect 2 0 11 0;
#X connect 3 0 11 1;
#X connect 4 0 15 0;
#X connect 4 0 14 0;
#X connect 6 0 3 1;
#X connect 7 0 9 0;
#X connect 9 0 3 1;
#X connect 10 0 6 0;
#X connect 11 0 1 0;
#X connect 12 0 2 1;
#X connect 13 0 3 1;
#X connect 14 0 7 0;
#X connect 15 0 10 0;
#X connect 16 0 17 0;
#X connect 17 0 18 0;
#X connect 17 1 22 0;
#X connect 19 0 20 0;
#X connect 19 0 3 0;
#X connect 20 0 21 0;
#X connect 21 0 2 1;
#X connect 23 0 24 0;
#X connect 24 0 2 1;
