#N canvas 0 22 1280 752 10;
#X declare -path abstractions;
#X declare -path ../vendors/oss;
#X declare -path ../vendors/rjlib;
#X declare -path ../vendors/pd-bbb-gpio;
#X obj 350 396 mikro-synth.dsp;
#X obj 350 426 dac~;
#X obj 12 3 declare -path abstractions;
#X obj 12 25 declare -path ../vendors/oss;
#X obj 12 47 declare -path ../vendors/rjlib;
#X obj 12 70 declare -path ../vendors/pd-bbb-gpio;
#X obj 377 78 loadbang;
#X obj 378 100 delay 200;
#N canvas 138 204 450 300 default-settings 0;
#X obj 166 218 outlet;
#X obj 34 -55 loadbang;
#X msg 34 162 notas modo-notas 0 \, notas octava 0.5 \, notas nota
0.5 \, notas modo-boton 0;
#X msg 85 48 \; pd dsp 1;
#X obj 34 20 t b b b b;
#X obj 34 -18 delay 100;
#X msg 68 88 envolvente attack 0 \, envolvente release 0 \, filtro
freq 1 \, delay duration 0.5 \, delay mix 0;
#X msg 51 124 armonizardor grado 0 \, armonizador seventh 1 \, arpegiador
modo 0 \, oscilador waveform 0.5;
#X connect 1 0 5 0;
#X connect 2 0 0 0;
#X connect 4 0 2 0;
#X connect 4 1 7 0;
#X connect 4 2 6 0;
#X connect 4 3 3 0;
#X connect 5 0 4 0;
#X connect 6 0 0 0;
#X connect 7 0 0 0;
#X restore 459 365 pd default-settings;
#N canvas 63 22 1280 752 route-analog-to-params 0;
#X obj 130 900 outlet boton;
#X text 15 5 xxx;
#X obj 285 899 outlet tempo;
#X obj 57 20 inlet digital;
#X obj 156 20 inlet analog;
#X obj 434 892 outlet parameters;
#X obj 156 46 s \$0-analog;
#X obj 57 76 s \$0-digital;
#X obj 58 49 list trim;
#X msg 322 654 filtro freq \$1;
#X obj 322 630 pow 2;
#X obj 322 604 / 127;
#X obj 322 548 r \$0-analog;
#X text 333 527 Filtro;
#X obj 59 166 r \$0-digital;
#X obj 9 222 s \$0-boton;
#X obj 130 862 r \$0-boton;
#X obj 43 192 route P9_11 P9_12 P9_13;
#X obj 91 229 / 127;
#X obj 141 226 / 127;
#X msg 90 264 notas modo-boton \$1;
#X msg 21 314 notas modo-notas \$1;
#X text 158 136 Notas;
#X text 155 151 suiches para cambiar \; modo notas a modo frecuencia
;
#X obj 250 187 r \$0-analog;
#X obj 250 217 route 1 2;
#X msg 232 282 notas nota \$1;
#X msg 319 300 notas octava \$1;
#X obj 249 249 / 127;
#X obj 319 254 / 127;
#X msg 514 224 armonizador seventh \$1;
#X text 430 144 Armonizador;
#X obj 433 175 r \$0-analog;
#X obj 514 175 r \$0-digital;
#X obj 514 201 route P9_14;
#X obj 433 200 route 3;
#X msg 433 257 armonizador grado \$1;
#X obj 433 226 / 127;
#X obj 727 158 r \$0-analog;
#X text 729 130 Arpegiador;
#X obj 727 195 route 4;
#X obj 727 225 / 127;
#X msg 727 262 arpegiador modo \$1;
#X obj 900 182 r \$0-analog;
#X obj 900 248 / 127;
#X msg 900 281 oscilador waveform \$1;
#X text 902 154 Oscilador;
#X obj 43 553 r \$0-analog;
#X obj 43 622 / 127;
#X text 45 525 Envolvente;
#X msg 44 738 envolvente attack \$1;
#X obj 44 661 pow 3;
#X obj 102 620 / 127;
#X obj 102 651 pow 3;
#X msg 102 675 envolvente release \$1;
#X obj 516 552 r \$0-analog;
#X obj 517 617 / 127;
#X obj 575 619 / 127;
#X text 518 534 Delay;
#X msg 517 667 envolvente duration \$1;
#X msg 575 644 delay mix \$1;
#X obj 801 620 / 127;
#X obj 801 557 r \$0-analog;
#X text 799 535 Tempo;
#X msg 801 653 metronomo tempo-ajuste \$1;
#X obj 895 554 r \$0-digital;
#X obj 895 580 route P9_15;
#X obj 895 608 s \$0-tempo;
#X obj 285 865 r \$0-tempo;
#X obj 467 504 s \$0-parameters;
#X obj 449 794 s \$0-parameters;
#X obj 434 855 r \$0-parameters;
#X text 391 50 Para cambiar a un boton o sensor especifico \; cambiar
route pin_number;
#X obj 900 219 route 6;
#X obj 43 590 route 7 8;
#X obj 322 578 route 9;
#X obj 516 589 route 10 11;
#X obj 801 587 route 12;
#X connect 3 0 8 0;
#X connect 4 0 6 0;
#X connect 8 0 7 0;
#X connect 9 0 70 0;
#X connect 10 0 9 0;
#X connect 11 0 10 0;
#X connect 12 0 75 0;
#X connect 14 0 17 0;
#X connect 16 0 0 0;
#X connect 17 0 15 0;
#X connect 17 1 18 0;
#X connect 17 2 19 0;
#X connect 18 0 21 0;
#X connect 19 0 20 0;
#X connect 20 0 69 0;
#X connect 21 0 69 0;
#X connect 24 0 25 0;
#X connect 25 0 28 0;
#X connect 25 1 29 0;
#X connect 26 0 69 0;
#X connect 27 0 69 0;
#X connect 28 0 26 0;
#X connect 29 0 27 0;
#X connect 30 0 69 0;
#X connect 32 0 35 0;
#X connect 33 0 34 0;
#X connect 34 0 30 0;
#X connect 35 0 37 0;
#X connect 36 0 69 0;
#X connect 37 0 36 0;
#X connect 38 0 40 0;
#X connect 40 0 41 0;
#X connect 41 0 42 0;
#X connect 42 0 69 0;
#X connect 43 0 73 0;
#X connect 44 0 45 0;
#X connect 45 0 69 0;
#X connect 47 0 74 0;
#X connect 48 0 51 0;
#X connect 50 0 70 0;
#X connect 51 0 50 0;
#X connect 52 0 53 0;
#X connect 53 0 54 0;
#X connect 54 0 70 0;
#X connect 55 0 76 0;
#X connect 56 0 59 0;
#X connect 57 0 60 0;
#X connect 59 0 70 0;
#X connect 61 0 64 0;
#X connect 62 0 77 0;
#X connect 64 0 70 0;
#X connect 65 0 66 0;
#X connect 66 0 67 0;
#X connect 68 0 2 0;
#X connect 71 0 5 0;
#X connect 73 0 44 0;
#X connect 74 0 48 0;
#X connect 74 1 52 0;
#X connect 75 0 11 0;
#X connect 76 0 56 0;
#X connect 76 1 57 0;
#X connect 77 0 61 0;
#X restore 321 213 pd route-analog-to-params;
#N canvas 786 354 450 300 init_input 0;
#X msg 113 119 digital P9_11 P9_12 P9_13 P9_14 P9_15 \, analog 1 2
3 4 6 7 8 9 10 11 12;
#X obj 110 59 inlet init;
#X obj 124 226 outlet init;
#X connect 0 0 2 0;
#X connect 1 0 0 0;
#X restore 378 139 pd init_input;
#X obj 378 174 bbb_input;
#X connect 0 0 1 0;
#X connect 0 0 1 1;
#X connect 6 0 7 0;
#X connect 7 0 10 0;
#X connect 8 0 0 2;
#X connect 9 0 0 0;
#X connect 9 1 0 1;
#X connect 9 2 0 2;
#X connect 10 0 11 0;
#X connect 11 0 9 0;
#X connect 11 1 9 1;
