#N canvas 536 22 571 439 10;
#X declare -path abstractions;
#X declare -path ../vendors/oss;
#N canvas 16 69 863 680 mikro-synth.gui 1;
#X obj 9 12 declare -path abstractions;
#X obj 9 34 declare -path ../vendors/oss;
#X obj 10 602 mikro-synth.dsp;
#X obj 10 64 notein;
#X obj 10 91 pack f f;
#X obj 10 635 dac~;
#X obj 304 198 cnv 15 330 60 empty empty Filtro 20 12 0 14 -233017
-66577 0;
#X obj 324 221 oss/slider 20 10000 3 10000 filtro freq;
#X connect 2 0 5 0;
#X connect 2 0 5 1;
#X connect 3 0 4 0;
#X connect 3 1 4 1;
#X connect 4 0 2 0;
#X connect 7 0 2 1;
#X coords 0 -1 1 1 533 400 2 300 10;
#X restore 17 18 pd mikro-synth.gui;
