#N canvas 83 204 714 566 10;
#X declare -path abstractions;
#X declare -path ../vendors/oss;
#X declare -path ../vendors/rjlib;
#X declare -path ../vendors/pd-bbb-gpio;
#X obj 20 416 mikro-synth.dsp;
#X obj 20 446 dac~;
#X obj 12 3 declare -path abstractions;
#X obj 12 25 declare -path ../vendors/oss;
#X obj 12 47 declare -path ../vendors/rjlib;
#X obj 262 47 loadbang;
#X msg 262 264 notas modo-notas 0 \, notas octava 0.5 \, notas nota
0.5 \, notas modo-boton 0;
#X msg 313 150 \; pd dsp 1;
#X obj 262 122 t b b b b;
#X obj 262 84 delay 100;
#X obj 12 70 declare -path ../vendors/pd-bbb-gpio;
#X obj 18 249 route P9_11;
#X obj 18 218 list trim;
#X msg 296 190 envolvente attack 0 \, envolvente release 0 \, filtro
freq 1 \, delay duration 0.5 \, delay mix 0;
#X obj 17 99 loadbang;
#X msg 18 149 digital P9_11 \, analog 6;
#X msg 125 341 filtro freq \$1;
#X obj 18 121 delay 200;
#X obj 125 207 route 6;
#X obj 18 178 input;
#X obj 125 259 pow 2;
#X msg 279 226 armonizardor grado 0 \, armonizador seventh 1 \, arpegiador
modo 0 \, oscilador waveform 0.5;
#X obj 125 233 / 128;
#X connect 0 0 1 0;
#X connect 0 0 1 1;
#X connect 5 0 9 0;
#X connect 6 0 0 2;
#X connect 8 0 6 0;
#X connect 8 1 21 0;
#X connect 8 2 13 0;
#X connect 8 3 7 0;
#X connect 9 0 8 0;
#X connect 11 0 0 0;
#X connect 12 0 11 0;
#X connect 13 0 0 2;
#X connect 14 0 17 0;
#X connect 15 0 19 0;
#X connect 16 0 0 2;
#X connect 17 0 15 0;
#X connect 18 0 22 0;
#X connect 19 0 12 0;
#X connect 19 1 18 0;
#X connect 20 0 16 0;
#X connect 21 0 0 2;
#X connect 22 0 20 0;
