#N canvas 383 237 714 449 10;
#X declare -path abstractions;
#X declare -path ../vendors/oss;
#X declare -path ../vendors/rjlib;
#X msg 296 190 envolvente attack 0 \, envolvente release 0.0098 \,
filtro freq 1 \, delay duration 0.5 \, delay mix 0;
#X obj 88 371 mikro-synth.dsp;
#X obj 88 401 dac~;
#X obj 12 3 declare -path abstractions;
#X obj 12 25 declare -path ../vendors/oss;
#X obj 12 47 declare -path ../vendors/rjlib;
#X obj 262 47 loadbang;
#X msg 279 226 armonizardor grado 0 \, armonizador seventh 1 \, arpegiador
modo 0 \, oscilador waveform 0.5;
#X obj 21 221 metro 500;
#X obj 70 280 + 1;
#X obj 39 281 f 0;
#X obj 39 304 % 2;
#X obj 21 167 loadbang;
#X msg 262 264 notas modo-notas 0 \, notas octava 0.5 \, notas nota
0.5 \, notas modo-boton 0;
#X msg 313 150 \; pd dsp 1;
#X obj 262 122 t b b b b;
#X obj 262 84 delay 100;
#X obj 21 192 delay 100;
#X obj 101 222 beaglebone_gpio/input;
#X msg 101 175 digital 11;
#X msg 101 248 bang;
#X obj 437 24 +~ 1;
#X msg 441 115 filtro freq \$1;
#X obj 438 82 snapshot~;
#X obj 524 0 loadbang;
#X msg 522 26 1;
#X obj 438 -17 osc~ 0.2;
#X obj 438 51 *~ 0.5;
#X obj 523 57 metro 10;
#X connect 0 0 1 2;
#X connect 1 0 2 0;
#X connect 1 0 2 1;
#X connect 6 0 16 0;
#X connect 7 0 1 2;
#X connect 9 0 10 1;
#X connect 10 0 9 0;
#X connect 10 0 11 0;
#X connect 11 0 1 0;
#X connect 12 0 17 0;
#X connect 13 0 1 2;
#X connect 15 0 13 0;
#X connect 15 1 7 0;
#X connect 15 2 0 0;
#X connect 15 3 14 0;
#X connect 16 0 15 0;
#X connect 16 0 19 0;
#X connect 17 0 8 0;
#X connect 18 0 20 0;
#X connect 19 0 18 0;
#X connect 20 0 10 0;
#X connect 21 0 27 0;
#X connect 23 0 22 0;
#X connect 24 0 25 0;
#X connect 25 0 28 0;
#X connect 26 0 21 0;
#X connect 27 0 23 0;
#X connect 28 0 23 0;
